<?xml version="1.0" encoding="UTF-8"?>
<!-- Created with Inkscape (http://www.inkscape.org/) -->
<svg width="21.02mm" height="17.79mm" version="1.1" viewBox="0 0 21.02 17.79" xmlns="http://www.w3.org/2000/svg" xmlns:cc="http://creativecommons.org/ns#" xmlns:dc="http://purl.org/dc/elements/1.1/" xmlns:rdf="http://www.w3.org/1999/02/22-rdf-syntax-ns#">
 <metadata>
  <rdf:RDF>
   <cc:Work rdf:about="">
    <dc:format>image/svg+xml</dc:format>
    <dc:type rdf:resource="http://purl.org/dc/dcmitype/StillImage"/>
    <dc:title/>
   </cc:Work>
  </rdf:RDF>
 </metadata>
 <g transform="translate(-124.5 -150.8)" fill="#333">
  <path d="m127.5 154c-0.5319 0.5576-1.001 1.172-1.399 1.832l0.4746 0.2737c0.3736-0.6186 0.8134-1.195 1.312-1.718zm0.3152-0.3108 0.3874 0.3874c0.523-0.4983 1.099-0.9383 1.717-1.312l-0.2737-0.4746c-0.6595 0.398-1.273 0.8672-1.83 1.399zm-1.94 2.523c-0.3695 0.6763-0.6635 1.391-0.8768 2.132l0.5301 0.1417c0.2006-0.6943 0.4761-1.365 0.8217-1.999zm4.15-4.149 0.2737 0.4746c0.6331-0.349 1.302-0.6281 1.996-0.8324l-0.1422-0.5306c-0.7395 0.2173-1.453 0.5153-2.127 0.8885zm-5.143 6.706c-0.186 0.748-0.2893 1.514-0.3079 2.285h0.5505c0.0177-0.7224 0.1139-1.441 0.287-2.142zm7.702-7.697 0.1417 0.5301c0.7015-0.1713 1.42-0.2658 2.141-0.2819v-0.5495c-0.7698 0.0166-1.535 0.1176-2.283 0.3012zm2.726-0.3104-1e-5 0.5505c0.7223 0.0182 1.441 0.115 2.142 0.2885l0.1427-0.5312c-0.748-0.186-1.514-0.2893-2.285-0.3079zm-10.73 10.74c0.0167 0.77 0.1179 1.536 0.3018 2.284l0.5316-0.1422c-0.172-0.7015-0.2672-1.42-0.284-2.141zm0.4047 2.714c0.2171 0.7396 0.5149 1.453 0.888 2.128l0.4781-0.2763c-0.3495-0.6325-0.6291-1.301-0.8339-1.994zm13.03-13.03-0.1422 0.5316c0.6939 0.201 1.364 0.4769 1.998 0.8227l0.2758-0.4776c-0.6763-0.3694-1.391-0.6635-2.132-0.8768zm2.513 1.103-0.2762 0.4782c0.6179 0.3737 1.193 0.8135 1.716 1.312l0.391-0.391c-0.5573-0.5318-1.171-1.001-1.831-1.399zm-14.43 14.43c0.3977 0.6591 0.8666 1.273 1.398 1.829l0.3915-0.3915c-0.4981-0.5221-0.9381-1.097-1.312-1.714zm8.235-6.194a1.061 1.061 0 0 0 1e-5 1.501 1.061 1.061 0 0 0 1.501 0 1.061 1.061 0 0 0-1e-5 -1.501 1.061 1.061 0 0 0-1.501-1e-5zm7.945-6.132c0.4981 0.5225 0.9378 1.098 1.312 1.715l0.4797-0.2768c-0.398-0.6596-0.8672-1.273-1.399-1.83zm1.537 2.096c0.3482 0.6328 0.6267 1.302 0.8304 1.995l0.5373-0.1438c-0.2169-0.7398-0.5145-1.453-0.8875-2.128zm0.9338 2.425c0.1711 0.7008 0.2656 1.418 0.2819 2.139l0.5566-1e-5c-0.0166-0.7698-0.1176-1.535-0.3013-2.283zm0.289 2.582c-0.018 0.7216-0.1144 1.439-0.2875 2.14l0.5378 0.1443c0.1861-0.7478 0.2896-1.514 0.3084-2.284zm-0.4037 2.567c-0.2008 0.6932-0.4763 1.362-0.8217 1.996l0.4842 0.2793c0.3692-0.6762 0.6631-1.391 0.8762-2.131zm-1.048 2.377c-0.3733 0.6173-0.8126 1.192-1.31 1.715l0.3956 0.3956c0.5315-0.5573 1-1.171 1.398-1.831z" style="paint-order:normal"/>
  <path d="m130.5 157a6.256 6.256 0 0 0-0.7454 0.977l0.439 0.2531a5.749 5.749 0 0 1 0.6646-0.8719zm0.2889-0.2846 0.3587 0.3587a5.749 5.749 0 0 1 0.8691-0.6683l-0.2536-0.4385a6.256 6.256 0 0 0-0.9742 0.7482zm1.324-0.9546 0.2531 0.4381a5.749 5.749 0 0 1 1.014-0.4175l-0.1312-0.4908a6.256 6.256 0 0 0-1.136 0.4703zm-2.562 2.567a6.256 6.256 0 0 0-0.4707 1.135l0.4899 0.1312a5.749 5.749 0 0 1 0.4203-1.012zm-0.5772 1.526a6.256 6.256 0 0 0-0.1597 1.219l0.5081-1e-5a5.749 5.749 0 0 1 0.1415-1.088zm4.668-4.663 0.1312 0.4899a5.749 5.749 0 0 1 1.087-0.1429v-0.5072a6.256 6.256 0 0 0-1.218 0.1602zm1.624-0.163v0.5072a5.749 5.749 0 0 1 1.088 0.1415l0.1312-0.489a6.256 6.256 0 0 0-1.219-0.1597zm-6.447 6.451a6.256 6.256 0 0 0 0.1597 1.218l0.4899-0.1312a5.749 5.749 0 0 1-0.1434-1.087zm0.2601 1.611a6.256 6.256 0 0 0 0.4703 1.136l0.4381-0.2531a5.749 5.749 0 0 1-0.418-1.015zm7.797-7.796-0.1312 0.489a5.749 5.749 0 0 1 1.012 0.4213l0.2536-0.4395a6.256 6.256 0 0 0-1.135-0.4707zm-7.121 9.281a6.256 6.256 0 0 0 0.7486 0.9747l0.3587-0.3587a5.749 5.749 0 0 1-0.6683-0.8691zm8.606-8.605-0.2531 0.439a5.749 5.749 0 0 1 0.8719 0.6646l0.3587-0.3587a6.256 6.256 0 0 0-0.9775-0.7449zm-3.985 4.619a0.9722 0.9722 0 0 0-1e-5 1.375 0.9722 0.9722 0 0 0 1.375-1e-5 0.9722 0.9722 0 0 0 0-1.375 0.9722 0.9722 0 0 0-1.375 0zm4.888-3.227a5.749 5.749 0 0 1 0.6679 0.8687l0.439-0.2531a6.256 6.256 0 0 0-0.7482-0.9742zm0.8747 1.218a5.749 5.749 0 0 1 0.4185 1.014l0.4904-0.1317a6.256 6.256 0 0 0-0.4694-1.136zm0.5189 1.407a5.749 5.749 0 0 1 0.1434 1.087l0.5063 1e-5a6.256 6.256 0 0 0-0.1597-1.218zm0.1462 1.492a5.749 5.749 0 0 1-0.1425 1.088l0.4899 0.1312a6.256 6.256 0 0 0 0.1597-1.219zm-0.248 1.479a5.749 5.749 0 0 1-0.4213 1.012l0.4399 0.254a6.256 6.256 0 0 0 0.4703-1.135zm-0.6249 1.363a5.749 5.749 0 0 1-0.6646 0.8719l0.3587 0.3587a6.256 6.256 0 0 0 0.7454-0.977z" style="paint-order:normal"/>
 </g>
</svg>
