<?xml version="1.0" encoding="UTF-8"?>
<!-- Created with Inkscape (http://www.inkscape.org/) -->
<svg width="50.8mm" height="128.5mm" version="1.1" viewBox="0 0 50.8 128.5" xmlns="http://www.w3.org/2000/svg" xmlns:cc="http://creativecommons.org/ns#" xmlns:dc="http://purl.org/dc/elements/1.1/" xmlns:rdf="http://www.w3.org/1999/02/22-rdf-syntax-ns#" xmlns:xlink="http://www.w3.org/1999/xlink">
 <defs>
  <linearGradient id="linearGradient975">
   <stop stop-color="#e6e6e6" offset="0"/>
   <stop stop-color="#b9b9b9" offset="1"/>
  </linearGradient>
  <linearGradient id="linearGradient2020" x1="294.8" x2="294.8" y1="14.22" y2="8.777" gradientTransform="matrix(.3382 0 0 .3382 -77.87 122.5)" gradientUnits="userSpaceOnUse" xlink:href="#linearGradient975"/>
  <linearGradient id="linearGradient2020-6" x1="294.8" x2="294.8" y1="14.22" y2="8.777" gradientTransform="matrix(.3382 0 0 .3382 -77.87 .0271)" gradientUnits="userSpaceOnUse" xlink:href="#linearGradient975"/>
 </defs>
 <metadata>
  <rdf:RDF>
   <cc:Work rdf:about="">
    <dc:format>image/svg+xml</dc:format>
    <dc:type rdf:resource="http://purl.org/dc/dcmitype/StillImage"/>
    <dc:title/>
   </cc:Work>
  </rdf:RDF>
 </metadata>
 <rect x="2.702e-7" width="50.8" height="128.5" rx="0" ry="0" fill="#f2f2f2" style="paint-order:stroke fill markers"/>
 <rect x="2.702e-7" width="50.8" height="128.5" rx="0" ry="0" fill="#f2f2f2" style="paint-order:stroke fill markers"/>
 <rect x="3.635" y="107.2" width="16.58" height="7.643" ry="3.822" fill="#73cde1" style="paint-order:normal"/>
 <path d="m6.824 1.127c-0.9947 0-1.802 0.8071-1.802 1.802 0 0.9947 0.8072 1.801 1.802 1.801h1.598c0.9946 0 1.802-0.8064 1.802-1.801 0-0.9947-0.8071-1.802-1.802-1.802zm35.55 0c-0.9947 0-1.802 0.8071-1.802 1.802 0 0.9947 0.8072 1.801 1.802 1.801h1.598c0.9946 0 1.802-0.8064 1.802-1.801 0-0.9947-0.8071-1.802-1.802-1.802zm-35.55 0.4055h1.598c0.7769 0 1.396 0.6194 1.396 1.396 0 0.7769-0.6193 1.396-1.396 1.396h-1.598c-0.777 0-1.396-0.6187-1.396-1.396 0-0.7768 0.6194-1.396 1.396-1.396zm35.55 0h1.598c0.7769 0 1.396 0.6194 1.396 1.396 0 0.7769-0.6193 1.396-1.396 1.396h-1.598c-0.7769 0-1.396-0.6187-1.396-1.396 0-0.7768 0.6194-1.396 1.396-1.396z" color="#000000" color-rendering="auto" dominant-baseline="auto" fill="url(#linearGradient2020-6)" image-rendering="auto" shape-rendering="auto" solid-color="#000000" stroke-width=".3382" style="font-feature-settings:normal;font-variant-alternates:normal;font-variant-caps:normal;font-variant-ligatures:normal;font-variant-numeric:normal;font-variant-position:normal;isolation:auto;mix-blend-mode:normal;paint-order:normal;shape-padding:0;text-decoration-color:#000000;text-decoration-line:none;text-decoration-style:solid;text-indent:0;text-orientation:mixed;text-transform:none;white-space:normal"/>
 <rect x="30.58" y="107.2" width="16.58" height="7.643" ry="3.822" fill="#fc0" style="paint-order:normal"/>
 <path d="m29.26 19.3c-0.5319 0.5576-1.001 1.172-1.399 1.832l0.4746 0.2737c0.3736-0.6186 0.8134-1.195 1.312-1.718zm0.3152-0.3108 0.3874 0.3874c0.523-0.4983 1.099-0.9383 1.717-1.312l-0.2737-0.4746c-0.6595 0.398-1.273 0.8672-1.83 1.399zm-1.94 2.523c-0.3695 0.6763-0.6635 1.391-0.8768 2.132l0.5301 0.1417c0.2006-0.6943 0.4761-1.365 0.8217-1.999zm4.15-4.149 0.2737 0.4746c0.6331-0.349 1.302-0.6281 1.996-0.8324l-0.1422-0.5306c-0.7395 0.2173-1.453 0.5153-2.127 0.8885zm-5.143 6.706c-0.186 0.748-0.2893 1.514-0.3079 2.285h0.5505c0.0177-0.7224 0.1139-1.441 0.287-2.142zm7.702-7.697 0.1417 0.5301c0.7015-0.1713 1.42-0.2658 2.141-0.2819v-0.5495c-0.7698 0.0166-1.535 0.1176-2.283 0.3012zm2.726-0.3104-5e-6 0.5505c0.7223 0.0182 1.441 0.115 2.142 0.2885l0.1427-0.5312c-0.748-0.186-1.514-0.2893-2.285-0.3079zm-10.73 10.74c0.01669 0.77 0.1179 1.536 0.3018 2.284l0.5316-0.1422c-0.172-0.7015-0.2672-1.42-0.284-2.141zm0.4047 2.714c0.2171 0.7396 0.5149 1.453 0.888 2.128l0.4781-0.2763c-0.3495-0.6325-0.6291-1.301-0.8339-1.994zm13.03-13.03-0.1422 0.5316c0.6939 0.201 1.364 0.4769 1.998 0.8227l0.2758-0.4776c-0.6763-0.3694-1.391-0.6635-2.132-0.8768zm2.513 1.103-0.2762 0.4782c0.6179 0.3737 1.193 0.8135 1.716 1.312l0.391-0.391c-0.5573-0.5318-1.171-1.001-1.831-1.399zm-14.43 14.43c0.3977 0.6591 0.8666 1.273 1.398 1.829l0.3915-0.3915c-0.4981-0.5221-0.9381-1.097-1.312-1.714zm8.235-6.194a1.061 1.061 0 0 0 5e-6 1.501 1.061 1.061 0 0 0 1.501 0 1.061 1.061 0 0 0-5e-6 -1.501 1.061 1.061 0 0 0-1.501-1e-5zm7.945-6.132c0.4981 0.5225 0.9378 1.098 1.312 1.715l0.4797-0.2768c-0.398-0.6596-0.8672-1.273-1.399-1.83zm1.537 2.096c0.3482 0.6328 0.6267 1.302 0.8304 1.995l0.5373-0.1438c-0.2169-0.7398-0.5145-1.453-0.8875-2.128zm0.9338 2.425c0.1711 0.7008 0.2656 1.418 0.2819 2.139l0.5566-1e-5c-0.01656-0.7698-0.1176-1.535-0.3013-2.283zm0.289 2.582c-0.01805 0.7216-0.1144 1.439-0.2875 2.14l0.5378 0.1443c0.1861-0.7478 0.2896-1.514 0.3084-2.284zm-0.4037 2.567c-0.2008 0.6932-0.4763 1.362-0.8217 1.996l0.4842 0.2793c0.3692-0.6762 0.6631-1.391 0.8762-2.131zm-1.048 2.377c-0.3733 0.6173-0.8126 1.192-1.31 1.715l0.3956 0.3956c0.5315-0.5573 1-1.171 1.398-1.831z" fill="#333" style="paint-order:normal"/>
 <path transform="scale(.2646)" d="m69.58 64.45v8.656h6.67v-0.9473h-5.707v-2.9h3.783v-0.9609h-3.783v-2.885h5.707v-0.9629h-6.67zm-25.36 0.01562v0.9473h2.869v7.693h0.9609v-7.693h2.885v-0.9473h-6.715zm8.451 0v0.4902c0 0.1261 0.04798 0.2355 0.1426 0.3301l2.727 2.744v5.076h0.9629v-5.076l2.758-2.76c0.0946-0.0946 0.127-0.2215 0.127-0.3477v-0.457h-0.9473v0.3008l-2.395 2.396-2.428-2.396v-0.3008h-0.9473zm8.422 0v8.656h0.9766v-2.885h3.357c0.1261 0 0.2374-0.07923 0.332-0.1738l1.906-1.939c0.0946-0.0946 0.127-0.2059 0.127-0.332v-1.008c0-0.1261-0.04798-0.2218-0.1426-0.3164l-1.891-1.875c-0.0946-0.0946-0.2059-0.127-0.332-0.127h-4.334zm0.9766 0.9473h3.168l1.625 1.576v0.6152l-1.641 1.654h-3.152v-3.846zm-6.781 22.35v5.662h0.6289v-2.521h3.121v2.521h0.6191v-5.662h-0.6191v2.51h-3.121v-2.51h-0.6289zm5.498 0v5.672h0.6406v-1.891h2.201c0.08266 0 0.1548-0.0513 0.2168-0.1133l1.25-1.271c0.06199-0.06198 0.08203-0.1341 0.08203-0.2168v-0.6602c0-0.08266-0.02978-0.145-0.0918-0.207l-1.24-1.23c-0.06198-0.06198-0.1341-0.08203-0.2168-0.08203h-2.842zm0.6406 0.6191h2.076l1.064 1.033v0.4043l-1.074 1.084h-2.066v-2.521zm-6.139 13.13v5.662h4.369v-0.6211h-3.74v-5.041h-0.6289zm5.498 0v5.672h0.6406v-1.891h2.201c0.08266 0 0.1548-0.05129 0.2168-0.1133l1.25-1.271c0.06199-0.06199 0.08203-0.1341 0.08203-0.2168v-0.6621c0-0.08266-0.02978-0.145-0.0918-0.207l-1.24-1.229c-0.06198-0.06198-0.1341-0.08203-0.2168-0.08203h-2.842zm0.6406 0.6191h2.076l1.064 1.033v0.4023l-1.074 1.086h-2.066v-2.521zm-6.139 13.13v0.6094h0.6289v4.434h-0.6289v0.6211h2.799c0.05167 0 0.1445-0.02152 0.2168-0.09375l1.262-1.291c0.05167-0.05166 0.0918-0.1355 0.0918-0.2285 0-0.06199-0.02977-0.145-0.0918-0.207l-1.045-1.021 1.045-1.004c0.05167-0.05167 0.0918-0.133 0.0918-0.2363 0-0.07234-0.02016-0.145-0.08203-0.207l-1.24-1.291c-0.04135-0.03099-0.1232-0.08398-0.2266-0.08398h-2.82zm5.498 0v5.674h0.6406v-1.891h2.201c0.08266 0 0.1548-0.05325 0.2168-0.1152l1.25-1.27c0.06199-0.06198 0.08203-0.1341 0.08203-0.2168v-0.6621c0-0.08266-0.02978-0.145-0.0918-0.207l-1.24-1.229c-0.06198-0.06198-0.1341-0.08398-0.2168-0.08398h-2.842zm-4.238 0.6094h1.426l0.9414 0.9727-0.9609 0.9297h-1.406v-1.902zm4.879 0.01172h2.076l1.064 1.033v0.4024l-1.074 1.086h-2.066v-2.521zm-4.879 2.521h1.416l0.9512 0.9297-0.9629 0.9707h-1.404v-1.9zm-4.031 10.61v0.6094h0.6309v4.432h-0.6309v0.6211h2.811c0.05167 0 0.1445-0.03117 0.2168-0.1035l1.25-1.24c0.03099-0.03099 0.09375-0.1232 0.09375-0.2266v-2.521c0-0.05166-0.02152-0.1445-0.09375-0.2168l-1.24-1.262c-0.03099-0.03099-0.1135-0.0918-0.2168-0.0918h-2.82zm5.498 0v5.662h0.6211v-2.531h0.8066l2.355 2.346v0.1855h0.6094v-0.3105c0-0.08268-0.03172-0.1548-0.09375-0.2168l-1.982-2.004h1.166c0.08266 0 0.1548-0.03173 0.2168-0.09375l0.6113-0.6191c0.06198-0.06198 0.0918-0.1341 0.0918-0.2168v-1.271c0-0.08266-0.02978-0.1548-0.0918-0.2168l-0.6309-0.6211c-0.06198-0.06198-0.1341-0.0918-0.2168-0.0918h-3.463zm5.531 0v0.9395c0 0.04134-0.02079 0.07197 0 0.1133l1.891 4.434c0.05167 0.1136 0.1547 0.1856 0.2891 0.1856 0.1343 0 0.2374-0.0719 0.2891-0.1856l1.912-4.422c0.0102-0.04135 0.02148-0.08366 0.02148-0.125v-0.9395h-0.6211v0.877l-1.602 3.689-1.561-3.699v-0.8672h-0.6191zm-9.77 0.6094h1.428l1.064 1.084v2.273l-1.064 1.064h-1.428v-4.422zm4.859 0.00976h2.717l0.4453 0.4453v1.012l-0.4336 0.4336h-2.729v-1.891zm98.39 14.05v8.654h6.668v-0.9453h-5.707v-2.902h3.785v-0.9609h-3.785v-2.885h5.707v-0.9609h-6.668zm-42.18 0.01562v0.9297h0.9609v6.764h-0.9609v0.9453h4.287c0.07883 0 0.2217-0.04784 0.332-0.1582l1.906-1.891c0.04728-0.04729 0.1426-0.19 0.1426-0.3477v-3.846c0-0.07881-0.03206-0.2217-0.1426-0.332l-1.891-1.924c-0.04728-0.04728-0.1744-0.1406-0.332-0.1406h-4.303zm11.73 0c-0.0473 0-0.1011 0.00764-0.1562 0.0293-0.05517 0.02168-0.1109 0.05615-0.1582 0.1113l-2.838 2.854c-0.04728 0.04729-0.1426 0.1745-0.1426 0.3164v5.328h0.9316v-2.885h4.791v2.885h0.9453v-5.297c0-0.07884-0.01475-0.2217-0.125-0.332l-2.885-2.869c-0.07881-0.07884-0.2056-0.1406-0.3633-0.1406zm5.568 0c-0.06304 0-0.1108 0.01547-0.1738 0.04688-0.1892 0.07884-0.2988 0.2364-0.2988 0.4414v8.15h0.9453v-7.016l1.939 1.955v1.197h0.9609v-1.197l1.924-1.986v7.047h0.9453v-8.182c0-0.2049-0.1097-0.3782-0.2988-0.457-0.06304-0.03137-0.1108 0-0.1738 0-0.1104 0-0.2374 0.03025-0.332 0.125l-2.568 2.57-2.539-2.539c-0.0946-0.0946-0.2197-0.1562-0.3301-0.1562zm11.3 0c-0.0946 0-0.2198 0.03011-0.3144 0.1406l-2.838 2.854c-0.04728 0.04729-0.1426 0.1745-0.1426 0.3164v5.328h0.9297v-2.885h4.793v2.885h0.9453v-5.297c0-0.07884-0.01475-0.2217-0.125-0.332l-2.885-2.869c-0.0788-0.07884-0.2056-0.1406-0.3633-0.1406zm7.49 0c-0.1576 0-0.2828 0.06192-0.3301 0.125l-1.893 1.877c-0.1104 0.1104-0.125 0.2825-0.125 0.3613v3.91c0 0.1576 0.09334 0.2848 0.1406 0.332l1.893 1.875c0.1104 0.1104 0.2513 0.127 0.3301 0.127h2.838c0.331 0 0.4883-0.2836 0.4883-0.457v-2.396h0.9941v-0.9629h-3.83v0.9629h1.891v1.906h-2.191l-1.607-1.592v-3.516l1.607-1.623h1.545l0.8047 0.8203 0.6777-0.6621-0.9453-0.9629c-0.1104-0.1104-0.2689-0.125-0.3477-0.125h-1.939zm-34.17 0.9297h2.174l1.625 1.654v3.469l-1.625 1.623h-2.174v-6.746zm9.822 0.2051 2.412 2.396v1.26h-4.775v-1.275l2.363-2.381zm16.87 0 2.412 2.396v1.26h-4.775v-1.275l2.363-2.381zm-103.7 73.99v5.674h0.6406v-1.893h2.201c0.08266 0 0.1548-0.0513 0.2168-0.1133l1.25-1.271c0.06198-0.06198 0.08398-0.1341 0.08398-0.2168v-0.6602c0-0.08266-0.03173-0.145-0.09375-0.207l-1.24-1.23c-0.06198-0.06199-0.1341-0.08203-0.2168-0.08203h-2.842zm5.541 0v4.742c0 0.08266 0.02977 0.1568 0.0918 0.2188l0.6211 0.6191c0.06198 0.06199 0.1341 0.09375 0.2168 0.09375 0.07234 0 0.1548-0.03172 0.2168-0.09375l1.033-1.033 1.055 1.023c0.06198 0.06198 0.1445 0.1035 0.2168 0.1035 0.08266 0 0.1548-0.04208 0.2168-0.09375l0.6309-0.6094c0.06198-0.06199 0.0918-0.1355 0.0918-0.2285v-4.742h-0.6191v4.609l-0.3203 0.3086-0.9512-0.9297v-1.457h-0.6191v1.438l-0.9512 0.9492-0.3203-0.2988v-4.619h-0.6094zm-4.9 0.6191h2.078l1.064 1.035v0.4024l-1.076 1.084h-2.066v-2.521zm109.9 73.56c-0.07234 0-0.1568 0.02977-0.2188 0.09179l-1.25 1.262c-0.05167 0.05167-0.0918 0.1341-0.0918 0.2168v0.3301h0.6191v-0.207l1.074-1.074h1.572l0.4434 0.4434v1.045l-3.617 3.678c-0.06199 0.06199-0.0918 0.1445-0.0918 0.2168 0 0.07234 0.02977 0.1548 0.0918 0.2168 0.06198 0.06198 0.1445 0.09375 0.2168 0.09375h4.02v-0.6191h-3.264l3.172-3.246c0.05166-0.05166 0.09179-0.1341 0.09179-0.2168v-1.291c0-0.07234-0.02977-0.1548-0.09179-0.2168l-0.6309-0.6309c-0.05167-0.05166-0.1341-0.09179-0.2168-0.09179h-1.828zm-102.8 0.01953c-0.07234 0-0.145 0.04153-0.207 0.1035l-1.436 1.488 0.4336 0.4024 0.9199-0.9512v5.25h0.5879v-5.982c0-0.1343-0.06154-0.2179-0.1855-0.2695-0.04135-0.02078-0.07197-0.04101-0.1133-0.04101zm-7.721 0.6309v5.662h0.6309v-2.521h3.121v-0.6309h-3.121v-1.891h3.74v-0.6191h-4.371zm103.5 0v5.662h0.6309v-2.521h3.121v-0.6309h-3.121v-1.891h3.74v-0.6191h-4.371zm22.81 79.94c-0.07234 0-0.1548 0.02977-0.2168 0.09179l-1.252 1.262c-0.05167 0.05167-0.0918 0.1341-0.0918 0.2168v0.3301h0.6191v-0.207l1.076-1.074h1.57l0.4434 0.4453v1.043l-3.617 3.678c-0.06198 0.06199-0.0918 0.1446-0.0918 0.2168s0.02978 0.1568 0.0918 0.2188c0.06198 0.06198 0.1464 0.0918 0.2188 0.0918h4.02v-0.6191h-3.266l3.172-3.246c0.05167-0.05166 0.09375-0.1341 0.09375-0.2168v-1.291c0-0.07234-0.03173-0.1548-0.09375-0.2168l-0.6309-0.6309c-0.05166-0.05166-0.1341-0.09179-0.2168-0.09179h-1.828zm-32.4 0.01953c-0.07234 0-0.145 0.04153-0.207 0.1035l-1.436 1.488 0.4336 0.4024 0.9199-0.9492v5.248h0.5879v-5.982c0-0.1344-0.06154-0.2179-0.1856-0.2695-0.04134-0.02078-0.07197-0.04101-0.1133-0.04101zm-110.5 0.6309v5.674h0.6406v-1.893h2.201c0.08267 0 0.1548-0.05141 0.2168-0.1133l1.25-1.271c0.062-0.06198 0.08398-0.1341 0.08398-0.2168v-0.6602c0-0.08266-0.03174-0.145-0.09375-0.207l-1.24-1.23c-0.062-0.06199-0.1341-0.08203-0.2168-0.08203h-2.842zm5.541 0v4.742c0 0.08277 0.02979 0.1548 0.0918 0.2168l0.6211 0.6211c0.062 0.06198 0.1341 0.09179 0.2168 0.09179 0.07233 0 0.1548-0.02905 0.2168-0.09179l1.033-1.033 1.055 1.023c0.062 0.06198 0.1445 0.1016 0.2168 0.1016 0.08266 0 0.1548-0.04001 0.2168-0.09179l0.6309-0.6094c0.062-0.06198 0.0918-0.1355 0.0918-0.2285v-4.742h-0.6191v4.609l-0.3203 0.3086-0.9512-0.9297v-1.457h-0.6191v1.438l-0.9512 0.9492-0.3203-0.2988v-4.619h-0.6094zm59.61 0v0.6094h0.6289v4.434h-0.6289v0.6191h2.811c0.05167 0 0.1445-0.03057 0.2168-0.1035l1.25-1.24c0.03099-0.03024 0.09179-0.1234 0.0918-0.2266v-2.521c0-0.05167-0.01957-0.1445-0.0918-0.2168l-1.24-1.26c-0.03099-0.03099-0.1135-0.09375-0.2168-0.09375h-2.82zm5.809 0c-0.04135 0-0.07392 0.01046-0.1152 0.03125-0.124 0.05166-0.1953 0.1547-0.1953 0.2891v5.342h0.6191v-4.598l1.271 1.281v0.7852h0.6309v-0.7852l1.26-1.303v4.619h0.6211v-5.363c0-0.1343-0.07326-0.2472-0.1973-0.2988-0.04135-0.02079-0.07197 0-0.1133 0-0.07234 0-0.1548 0.02016-0.2168 0.08203l-1.684 1.686-1.664-1.664c-0.06199-0.06198-0.1445-0.1035-0.2168-0.1035zm6.789 0c-0.1033 0-0.1858 0.04072-0.2168 0.08203l-1.24 1.23c-0.07234 0.07234-0.08203 0.1866-0.08203 0.2383v2.562c0 0.1032 0.06272 0.1858 0.09375 0.2168l1.24 1.229c0.07234 0.07219 0.1651 0.08399 0.2168 0.08399h1.859c0.217 0 0.3203-0.187 0.3203-0.3008v-1.57h0.6504v-0.6309h-2.51v0.6309h1.24v1.25h-1.438l-1.053-1.043v-2.305l1.053-1.064h1.014l0.5273 0.5371 0.4434-0.4336-0.6191-0.6309c-0.07234-0.07234-0.1768-0.08203-0.2285-0.08203h-1.271zm25.07 0v5.662h0.6309v-2.521h3.119v-0.6289h-3.119v-1.893h3.74v-0.6191h-4.371zm33.04 0v5.662h0.6289v-2.521h3.121v-0.6289h-3.121v-1.893h3.74v-0.6191h-4.369zm-69.44 0.6094h1.426l1.064 1.086v2.273l-1.064 1.062h-1.426v-4.422zm-65.77 0.00977h2.078l1.062 1.033v0.4043l-1.074 1.084h-2.066v-2.521zm9.617 19v0.5742h0.584v4.092h-0.584v0.582h1.75v-0.582h-0.584v-4.092h0.584v-0.5742h-1.75zm3.949 0v5.229h0.584v-4.377l2.914 2.943v1.434h0.5742v-5.229h-0.5742v2.916l-2.914-2.916h-0.584zm10.25 0v4.379c0 0.09562 0.04749 0.1724 0.07617 0.2012l0.5645 0.5625c0.0669 0.0669 0.1514 0.08789 0.1992 0.08789h2.371c0.09558 0 0.1727-0.05753 0.2109-0.0957l0.5547-0.584c0.0669-0.0669 0.07617-0.1532 0.07617-0.1914v-4.357h-0.5742v4.242l-0.3906 0.4121h-2.123l-0.4102-0.4023v-4.252l-0.5547-0.00195zm5.096 0v0.5742h1.74v4.664h0.582v-4.664h1.75v-0.5742h-4.072zm80.26 0c-0.05733 0-0.144 0.0111-0.2109 0.08594l-0.5449 0.5938c-0.03825 0.03817-0.0957 0.1052-0.0957 0.1914v3.527c0 0.048 0.01919 0.1421 0.08594 0.209l0.5644 0.5449c0.02873 0.03028 0.1056 0.07618 0.2012 0.07618h2.352c0.04777 0 0.1323-0.01867 0.1992-0.08594l0.584-0.5723c0.03825-0.03023 0.08594-0.1056 0.08594-0.2012v-3.488c0-0.04762-0.00916-0.1343-0.07618-0.2012l-0.5742-0.5938c-0.02873-0.03817-0.1134-0.08594-0.209-0.08594h-2.361zm4.283 0v4.379c0 0.09562 0.04748 0.1724 0.07617 0.2012l0.5644 0.5625c0.0669 0.0669 0.1534 0.08789 0.2012 0.08789h2.369c0.09559 0 0.1727-0.05753 0.2109-0.0957l0.5547-0.584c0.0669-0.0669 0.07617-0.1532 0.07617-0.1914v-4.357h-0.5742v4.242l-0.3906 0.4121h-2.123l-0.4102-0.4023v-4.252l-0.5547-0.00195zm5.096 0v0.5742h1.74v4.664h0.582v-4.664h1.75v-0.5742h-4.072zm10.25 0v4.379c0 0.09562 0.04748 0.1724 0.07617 0.2012l0.5644 0.5625c0.0669 0.0669 0.1534 0.08789 0.2012 0.08789h2.369c0.09558 0 0.1727-0.05753 0.2109-0.0957l0.5547-0.584c0.0669-0.0669 0.07617-0.1532 0.07617-0.1914v-4.357h-0.5742v4.242l-0.3906 0.4121h-2.123l-0.4102-0.4023v-4.252l-0.5547-0.00195zm5.096 0v0.5742h1.74v4.664h0.582v-4.664h1.75v-0.5742h-4.072zm-115.2 0.00195v5.246h0.5918v-1.748h2.037c0.07646 0 0.1438-0.0484 0.2012-0.1055l1.156-1.176c0.05734-0.05745 0.07617-0.1248 0.07617-0.2012v-0.6113c0-0.07635-0.02864-0.1339-0.08594-0.1914l-1.146-1.137c-0.05734-0.05745-0.1247-0.07618-0.2012-0.07618h-2.629zm105 0v5.246h0.5938v-1.748h2.035c0.07646 0 0.1438-0.0484 0.2012-0.1055l1.156-1.176c0.05734-0.05745 0.07617-0.1248 0.07617-0.2012v-0.6113c0-0.07635-0.02864-0.1339-0.08593-0.1914l-1.146-1.137c-0.05733-0.05745-0.1247-0.07618-0.2012-0.07618h-2.629zm-14.37 0.5625h2.113l0.4102 0.4297v3.25l-0.4102 0.4121h-2.123l-0.3711-0.3828v-3.287l0.3809-0.4219zm-90.02 0.00977h1.922l0.9844 0.957v0.3711l-0.9941 1.004h-1.912v-2.332zm105 0h1.92l0.9844 0.957v0.3711l-0.9941 1.004h-1.91v-2.332z" fill="#333" stroke-width=".239" style="font-feature-settings:normal;font-variant-caps:normal;font-variant-ligatures:normal;font-variant-numeric:normal"/>
 <g transform="translate(-.65)">
  <circle cx="26.05" cy="120.1" r="3.692" fill="#333" style="paint-order:stroke fill markers"/>
  <circle cx="26.05" cy="120.1" r="3.23" fill="#e6e6e6" style="paint-order:stroke fill markers"/>
  <circle cx="26.05" cy="120.1" r="2.838" fill="#fc0" style="paint-order:stroke fill markers"/>
  <path d="m23.21 120.1a2.838 2.838 0 0 1 2.838-2.838v2.838z" fill="#333" style="paint-order:stroke fill markers"/>
  <path d="m28.89 120.1a2.838 2.838 0 0 1-2.838 2.838v-2.838z" fill="#333" style="paint-order:stroke fill markers"/>
 </g>
 <rect x="3.522" y="89.8" width="43.76" height="7.643" ry="3.822" fill="#333" style="paint-order:normal"/>
 <path d="m6.824 1.533h1.598c0.7769 0 1.396 0.6194 1.396 1.396 0 0.7769-0.6193 1.396-1.396 1.396h-1.598c-0.777 0-1.396-0.6187-1.396-1.396 0-0.7768 0.6194-1.396 1.396-1.396zm35.55 0h1.598c0.7769 0 1.396 0.6194 1.396 1.396 0 0.7769-0.6193 1.396-1.396 1.396h-1.598c-0.7769 0-1.396-0.6187-1.396-1.396 0-0.7768 0.6194-1.396 1.396-1.396z" color="#000000" color-rendering="auto" dominant-baseline="auto" fill="#c9c9c9" image-rendering="auto" shape-rendering="auto" solid-color="#000000" stroke-width=".3382" style="font-feature-settings:normal;font-variant-alternates:normal;font-variant-caps:normal;font-variant-ligatures:normal;font-variant-numeric:normal;font-variant-position:normal;isolation:auto;mix-blend-mode:normal;paint-order:normal;shape-padding:0;text-decoration-color:#000000;text-decoration-line:none;text-decoration-style:solid;text-indent:0;text-orientation:mixed;text-transform:none;white-space:normal"/>
 <path d="m6.824 123.6c-0.9947 0-1.802 0.8071-1.802 1.802 0 0.9947 0.8072 1.801 1.802 1.801h1.598c0.9946 0 1.802-0.8064 1.802-1.801 0-0.9947-0.8071-1.802-1.802-1.802zm35.55 0c-0.9947 0-1.802 0.8071-1.802 1.802 0 0.9947 0.8072 1.801 1.802 1.801h1.598c0.9946 0 1.802-0.8064 1.802-1.801 0-0.9947-0.8071-1.802-1.802-1.802zm-35.55 0.4055h1.598c0.7769 0 1.396 0.6194 1.396 1.396 0 0.7769-0.6193 1.396-1.396 1.396h-1.598c-0.777 0-1.396-0.6187-1.396-1.396 0-0.7768 0.6194-1.396 1.396-1.396zm35.55 0h1.598c0.7769 0 1.396 0.6194 1.396 1.396 0 0.7769-0.6193 1.396-1.396 1.396h-1.598c-0.7769 0-1.396-0.6187-1.396-1.396 0-0.7768 0.6194-1.396 1.396-1.396z" color="#000000" color-rendering="auto" dominant-baseline="auto" fill="url(#linearGradient2020)" image-rendering="auto" shape-rendering="auto" solid-color="#000000" stroke-width=".3382" style="font-feature-settings:normal;font-variant-alternates:normal;font-variant-caps:normal;font-variant-ligatures:normal;font-variant-numeric:normal;font-variant-position:normal;isolation:auto;mix-blend-mode:normal;paint-order:normal;shape-padding:0;text-decoration-color:#000000;text-decoration-line:none;text-decoration-style:solid;text-indent:0;text-orientation:mixed;text-transform:none;white-space:normal"/>
 <path d="m7.272 47.3a6.256 6.256 0 0 0-0.7454 0.977l0.439 0.2531a5.749 5.749 0 0 1 0.6646-0.8719zm0.2889-0.2846 0.3587 0.3587a5.749 5.749 0 0 1 0.8691-0.6683l-0.2536-0.4385a6.256 6.256 0 0 0-0.9742 0.7482zm1.324-0.9546 0.2531 0.4381a5.749 5.749 0 0 1 1.014-0.4175l-0.1312-0.4908a6.256 6.256 0 0 0-1.136 0.4703zm-2.562 2.567a6.256 6.256 0 0 0-0.4707 1.135l0.4899 0.1312a5.749 5.749 0 0 1 0.4203-1.012zm-0.5772 1.526a6.256 6.256 0 0 0-0.1597 1.219l0.5081-1e-5a5.749 5.749 0 0 1 0.1415-1.088zm4.668-4.663 0.1312 0.4899a5.749 5.749 0 0 1 1.087-0.1429v-0.5072a6.256 6.256 0 0 0-1.218 0.1602zm1.624-0.163v0.5072a5.749 5.749 0 0 1 1.088 0.1415l0.1312-0.489a6.256 6.256 0 0 0-1.219-0.1597zm-6.447 6.451a6.256 6.256 0 0 0 0.1597 1.218l0.4899-0.1312a5.749 5.749 0 0 1-0.1434-1.087zm0.2601 1.611a6.256 6.256 0 0 0 0.4703 1.136l0.4381-0.2531a5.749 5.749 0 0 1-0.418-1.015zm7.797-7.796-0.1312 0.489a5.749 5.749 0 0 1 1.012 0.4213l0.2536-0.4395a6.256 6.256 0 0 0-1.135-0.4707zm-7.121 9.281a6.256 6.256 0 0 0 0.7486 0.9747l0.3587-0.3587a5.749 5.749 0 0 1-0.6683-0.8691zm8.606-8.605-0.2531 0.439a5.749 5.749 0 0 1 0.8719 0.6646l0.3587-0.3587a6.256 6.256 0 0 0-0.9775-0.7449zm-3.985 4.619a0.9722 0.9722 0 0 0-7e-6 1.375 0.9722 0.9722 0 0 0 1.375-1e-5 0.9722 0.9722 0 0 0-7e-6 -1.375 0.9722 0.9722 0 0 0-1.375 0zm4.888-3.227a5.749 5.749 0 0 1 0.6679 0.8687l0.439-0.2531a6.256 6.256 0 0 0-0.7482-0.9742zm0.8747 1.218a5.749 5.749 0 0 1 0.4185 1.014l0.4904-0.1317a6.256 6.256 0 0 0-0.4694-1.136zm0.5189 1.407a5.749 5.749 0 0 1 0.1434 1.087l0.5063 1e-5a6.256 6.256 0 0 0-0.1597-1.218zm0.1462 1.492a5.749 5.749 0 0 1-0.1425 1.088l0.4899 0.1312a6.256 6.256 0 0 0 0.1597-1.219zm-0.248 1.479a5.749 5.749 0 0 1-0.4213 1.012l0.4399 0.254a6.256 6.256 0 0 0 0.4703-1.135zm-0.6249 1.363a5.749 5.749 0 0 1-0.6646 0.8719l0.3587 0.3587a6.256 6.256 0 0 0 0.7454-0.977z" fill="#333" style="paint-order:normal"/>
 <path d="m38.76 45.3a6.256 6.256 0 0 0-1.218 0.1638l0.1314 0.4894a5.749 5.749 0 0 1 1.086-0.1466zm0.4055 3e-3v0.5072a5.749 5.749 0 0 1 1.087 0.142l0.1308-0.4894a6.256 6.256 0 0 0-1.218-0.1598zm1.611 0.2609-0.1308 0.4887a5.749 5.749 0 0 1 1.012 0.422l0.2543-0.4399a6.256 6.256 0 0 0-1.136-0.4709zm-3.627 4e-3a6.256 6.256 0 0 0-1.135 0.4696l0.2536 0.4392a5.749 5.749 0 0 1 1.013-0.4187zm-1.487 0.671a6.256 6.256 0 0 0-0.9749 0.749l0.3593 0.3593a5.749 5.749 0 0 1 0.8692-0.669zm6.598 4e-3 -0.2536 0.4392a5.749 5.749 0 0 1 0.8698 0.6677l0.3586-0.3586a6.256 6.256 0 0 0-0.9748-0.7483zm1.263 1.033-0.3586 0.3586a5.749 5.749 0 0 1 0.669 0.8692l0.4386-0.253a6.256 6.256 0 0 0-0.749-0.9748zm-9.12 3e-3a6.256 6.256 0 0 0-0.7483 0.9742l0.4392 0.2536a5.749 5.749 0 0 1 0.6671-0.8698zm-0.955 1.323a6.256 6.256 0 0 0-0.4709 1.136l0.4887 0.1308a5.749 5.749 0 0 1 0.422-1.013zm11.03 1e-3 -0.4385 0.253a5.749 5.749 0 0 1 0.4181 1.014l0.4901-0.1314a6.256 6.256 0 0 0-0.4696-1.135zm-11.6 1.527a6.256 6.256 0 0 0-0.1598 1.219h0.5072a5.749 5.749 0 0 1 0.142-1.087zm12.17 6.7e-4 -0.4894 0.1314a5.749 5.749 0 0 1 0.1466 1.086h0.5072a6.256 6.256 0 0 0-0.1644-1.218zm-6.084 0.4485a0.9722 0.9722 0 0 0-0.9722 0.9722 0.9722 0.9722 0 0 0 0.9722 0.9722 0.9722 0.9722 0 0 0 0.9722-0.9722 0.9722 0.9722 0 0 0-0.9722-0.9722zm5.738 1.175a5.749 5.749 0 0 1-0.142 1.086l0.4894 0.1314a6.256 6.256 0 0 0 0.1598-1.218zm-0.2424 1.479a5.749 5.749 0 0 1-0.4214 1.013l0.4399 0.2536a6.256 6.256 0 0 0 0.4716-1.135zm-0.6281 1.362a5.749 5.749 0 0 1-0.6671 0.8698l0.358 0.358a6.256 6.256 0 0 0 0.7483-0.9742zm-0.9517 1.158a5.749 5.749 0 0 1-0.8698 0.6684l0.2536 0.4392a6.256 6.256 0 0 0 0.9748-0.749zm-1.221 0.8705a5.749 5.749 0 0 1-1.014 0.4181l0.1314 0.4907a6.256 6.256 0 0 0 1.135-0.4702zm-1.405 0.5218a5.749 5.749 0 0 1-1.086 0.1466v0.5072a6.256 6.256 0 0 0 1.218-0.1638z" fill="#333" style="paint-order:normal"/>
 <path d="m28.7 59.83c0 2.575-1.478 4.584-3.301 4.584s-3.301-2.028-3.301-4.584c0-1.823 1.478-3.301 3.301-3.301s3.301 1.478 3.301 3.301z" fill="#333" style="paint-order:stroke fill markers"/>
 <path transform="scale(.2646)" d="m96.02 215.9c-5.854 0-10.6 4.751-10.6 10.61 0 8.213 4.747 14.73 10.6 14.73 5.854 0 10.6-6.459 10.6-14.73 0-5.858-4.747-10.61-10.6-10.61zm-0.01758 3.107a4.616 4.616 0 0 1 4.617 4.615 4.616 4.616 0 0 1-4.617 4.617 4.616 4.616 0 0 1-4.615-4.617 4.616 4.616 0 0 1 4.615-4.615zm0.1016 1.393v3.223h-3.33a3.229 3.229 0 0 0 3.229 3.23 3.229 3.229 0 0 0 0.1055-0.0039v-3.227h3.125a3.229 3.229 0 0 0-3.129-3.223zm-7.348 7.559a1.283 1.283 0 0 1 1.283 1.283 1.283 1.283 0 0 1-1.283 1.281 1.283 1.283 0 0 1-1.283-1.281 1.283 1.283 0 0 1 1.283-1.283zm14.29 0a1.283 1.283 0 0 1 1.283 1.283 1.283 1.283 0 0 1-1.283 1.281 1.283 1.283 0 0 1-1.281-1.281 1.283 1.283 0 0 1 1.281-1.283zm-11.4 4.973h8.697c0.7295 0 1.316 0.5869 1.316 1.316 0 0.7295-0.5869 1.316-1.316 1.316h-8.697c-0.7295 0-1.318-0.5869-1.318-1.316 0-0.7295 0.5889-1.316 1.318-1.316z" fill="#f2f2f2" stroke-width="3.78" style="paint-order:stroke fill markers"/>
 <path d="m29.26 19.3c-0.5319 0.5576-1.001 1.172-1.399 1.832l0.4746 0.2737c0.3736-0.6186 0.8134-1.195 1.312-1.718zm0.3152-0.3108 0.3874 0.3874c0.523-0.4983 1.099-0.9383 1.717-1.312l-0.2737-0.4746c-0.6595 0.398-1.273 0.8672-1.83 1.399zm-1.94 2.523c-0.3695 0.6763-0.6635 1.391-0.8768 2.132l0.5301 0.1417c0.2006-0.6943 0.4761-1.365 0.8217-1.999zm4.15-4.149 0.2737 0.4746c0.6331-0.349 1.302-0.6281 1.996-0.8324l-0.1422-0.5306c-0.7395 0.2173-1.453 0.5153-2.127 0.8885zm-5.143 6.706c-0.186 0.748-0.2893 1.514-0.3079 2.285h0.5505c0.0177-0.7224 0.1139-1.441 0.287-2.142zm7.702-7.697 0.1417 0.5301c0.7015-0.1713 1.42-0.2658 2.141-0.2819v-0.5495c-0.7698 0.0166-1.535 0.1176-2.283 0.3012zm2.726-0.3104-5e-6 0.5505c0.7223 0.0182 1.441 0.115 2.142 0.2885l0.1427-0.5312c-0.748-0.186-1.514-0.2893-2.285-0.3079zm-10.73 10.74c0.01669 0.77 0.1179 1.536 0.3018 2.284l0.5316-0.1422c-0.172-0.7015-0.2672-1.42-0.284-2.141zm0.4047 2.714c0.2171 0.7396 0.5149 1.453 0.888 2.128l0.4781-0.2763c-0.3495-0.6325-0.6291-1.301-0.8339-1.994zm13.03-13.03-0.1422 0.5316c0.6939 0.201 1.364 0.4769 1.998 0.8227l0.2758-0.4776c-0.6763-0.3694-1.391-0.6635-2.132-0.8768zm2.513 1.103-0.2762 0.4782c0.6179 0.3737 1.193 0.8135 1.716 1.312l0.391-0.391c-0.5573-0.5318-1.171-1.001-1.831-1.399zm-14.43 14.43c0.3977 0.6591 0.8666 1.273 1.398 1.829l0.3915-0.3915c-0.4981-0.5221-0.9381-1.097-1.312-1.714zm8.235-6.194a1.061 1.061 0 0 0 5e-6 1.501 1.061 1.061 0 0 0 1.501 0 1.061 1.061 0 0 0-5e-6 -1.501 1.061 1.061 0 0 0-1.501-1e-5zm7.945-6.132c0.4981 0.5225 0.9378 1.098 1.312 1.715l0.4797-0.2768c-0.398-0.6596-0.8672-1.273-1.399-1.83zm1.537 2.096c0.3482 0.6328 0.6267 1.302 0.8304 1.995l0.5373-0.1438c-0.2169-0.7398-0.5145-1.453-0.8875-2.128zm0.9338 2.425c0.1711 0.7008 0.2656 1.418 0.2819 2.139l0.5566-1e-5c-0.01656-0.7698-0.1176-1.535-0.3013-2.283zm0.289 2.582c-0.01805 0.7216-0.1144 1.439-0.2875 2.14l0.5378 0.1443c0.1861-0.7478 0.2896-1.514 0.3084-2.284zm-0.4037 2.567c-0.2008 0.6932-0.4763 1.362-0.8217 1.996l0.4842 0.2793c0.3692-0.6762 0.6631-1.391 0.8762-2.131zm-1.048 2.377c-0.3733 0.6173-0.8126 1.192-1.31 1.715l0.3956 0.3956c0.5315-0.5573 1-1.171 1.398-1.831z" fill="#333" style="paint-order:normal"/>
 <path d="m35.89 57.32-2.596 2.596h-3.541v0.5645h3.775l2.762-2.76z" color="#000000" color-rendering="auto" dominant-baseline="auto" fill="#333" image-rendering="auto" shape-rendering="auto" solid-color="#000000" style="font-feature-settings:normal;font-variant-alternates:normal;font-variant-caps:normal;font-variant-ligatures:normal;font-variant-numeric:normal;font-variant-position:normal;isolation:auto;mix-blend-mode:normal;shape-padding:0;text-decoration-color:#000000;text-decoration-line:none;text-decoration-style:solid;text-indent:0;text-orientation:mixed;text-transform:none;white-space:normal"/>
 <path d="m7.272 67.1a6.256 6.256 0 0 0-0.7454 0.977l0.439 0.2531a5.749 5.749 0 0 1 0.6646-0.8719zm0.2889-0.2846 0.3587 0.3587a5.749 5.749 0 0 1 0.8691-0.6683l-0.2536-0.4385a6.256 6.256 0 0 0-0.9742 0.7482zm1.324-0.9546 0.2531 0.4381a5.749 5.749 0 0 1 1.014-0.4175l-0.1312-0.4908a6.256 6.256 0 0 0-1.136 0.4703zm-2.562 2.567a6.256 6.256 0 0 0-0.4707 1.135l0.4899 0.1312a5.749 5.749 0 0 1 0.4203-1.012zm-0.5772 1.526a6.256 6.256 0 0 0-0.1597 1.219l0.5081-1e-5a5.749 5.749 0 0 1 0.1415-1.088zm4.668-4.663 0.1312 0.4899a5.749 5.749 0 0 1 1.087-0.1429v-0.5072a6.256 6.256 0 0 0-1.218 0.1602zm1.624-0.163v0.5072a5.749 5.749 0 0 1 1.088 0.1415l0.1312-0.489a6.256 6.256 0 0 0-1.219-0.1597zm-6.447 6.451a6.256 6.256 0 0 0 0.1597 1.218l0.4899-0.1312a5.749 5.749 0 0 1-0.1434-1.087zm0.2601 1.611a6.256 6.256 0 0 0 0.4703 1.136l0.4381-0.2531a5.749 5.749 0 0 1-0.418-1.015zm7.797-7.796-0.1312 0.489a5.749 5.749 0 0 1 1.012 0.4213l0.2536-0.4395a6.256 6.256 0 0 0-1.135-0.4707zm-7.121 9.281a6.256 6.256 0 0 0 0.7486 0.9747l0.3587-0.3587a5.749 5.749 0 0 1-0.6683-0.8691zm8.606-8.605-0.2531 0.439a5.749 5.749 0 0 1 0.8719 0.6646l0.3587-0.3587a6.256 6.256 0 0 0-0.9775-0.7449zm-3.985 4.619a0.9722 0.9722 0 0 0-7e-6 1.375 0.9722 0.9722 0 0 0 1.375-1e-5 0.9722 0.9722 0 0 0-7e-6 -1.375 0.9722 0.9722 0 0 0-1.375 0zm4.888-3.227a5.749 5.749 0 0 1 0.6679 0.8687l0.439-0.2531a6.256 6.256 0 0 0-0.7482-0.9742zm0.8747 1.218a5.749 5.749 0 0 1 0.4185 1.014l0.4904-0.1317a6.256 6.256 0 0 0-0.4694-1.136zm0.5189 1.407a5.749 5.749 0 0 1 0.1434 1.087l0.5063 1e-5a6.256 6.256 0 0 0-0.1597-1.218zm0.1462 1.492a5.749 5.749 0 0 1-0.1425 1.088l0.4899 0.1312a6.256 6.256 0 0 0 0.1597-1.219zm-0.248 1.479a5.749 5.749 0 0 1-0.4213 1.012l0.4399 0.254a6.256 6.256 0 0 0 0.4703-1.135zm-0.6249 1.363a5.749 5.749 0 0 1-0.6646 0.8719l0.3587 0.3587a6.256 6.256 0 0 0 0.7454-0.977z" fill="#333" style="paint-order:normal"/>
 <path d="m34.4 67.1a6.256 6.256 0 0 0-0.7454 0.977l0.439 0.2531a5.749 5.749 0 0 1 0.6646-0.8719zm0.2889-0.2846 0.3587 0.3587a5.749 5.749 0 0 1 0.8691-0.6683l-0.2536-0.4385a6.256 6.256 0 0 0-0.9742 0.7482zm1.324-0.9546 0.2531 0.4381a5.749 5.749 0 0 1 1.014-0.4175l-0.1312-0.4908a6.256 6.256 0 0 0-1.136 0.4703zm-2.562 2.567a6.256 6.256 0 0 0-0.4707 1.135l0.4899 0.1312a5.749 5.749 0 0 1 0.4203-1.012zm-0.5772 1.526a6.256 6.256 0 0 0-0.1597 1.219l0.5081-1e-5a5.749 5.749 0 0 1 0.1415-1.088zm4.668-4.663 0.1312 0.4899a5.749 5.749 0 0 1 1.087-0.1429v-0.5072a6.256 6.256 0 0 0-1.218 0.1602zm1.624-0.163v0.5072a5.749 5.749 0 0 1 1.088 0.1415l0.1312-0.489a6.256 6.256 0 0 0-1.219-0.1597zm-6.447 6.451a6.256 6.256 0 0 0 0.1597 1.218l0.4899-0.1312a5.749 5.749 0 0 1-0.1434-1.087zm0.2601 1.611a6.256 6.256 0 0 0 0.4703 1.136l0.4381-0.2531a5.749 5.749 0 0 1-0.418-1.015zm7.797-7.796-0.1312 0.489a5.749 5.749 0 0 1 1.012 0.4213l0.2536-0.4395a6.256 6.256 0 0 0-1.135-0.4707zm-7.121 9.281a6.256 6.256 0 0 0 0.7486 0.9747l0.3587-0.3587a5.749 5.749 0 0 1-0.6683-0.8691zm8.606-8.605-0.2531 0.439a5.749 5.749 0 0 1 0.8719 0.6646l0.3587-0.3587a6.256 6.256 0 0 0-0.9775-0.7449zm-3.985 4.619a0.9722 0.9722 0 0 0-7e-6 1.375 0.9722 0.9722 0 0 0 1.375-1e-5 0.9722 0.9722 0 0 0-7e-6 -1.375 0.9722 0.9722 0 0 0-1.375 0zm4.888-3.227a5.749 5.749 0 0 1 0.6679 0.8687l0.439-0.2531a6.256 6.256 0 0 0-0.7482-0.9742zm0.8747 1.218a5.749 5.749 0 0 1 0.4185 1.014l0.4904-0.1317a6.256 6.256 0 0 0-0.4694-1.136zm0.5189 1.407a5.749 5.749 0 0 1 0.1434 1.087l0.5063 1e-5a6.256 6.256 0 0 0-0.1597-1.218zm0.1462 1.492a5.749 5.749 0 0 1-0.1425 1.088l0.4899 0.1312a6.256 6.256 0 0 0 0.1597-1.219zm-0.248 1.479a5.749 5.749 0 0 1-0.4213 1.012l0.4399 0.254a6.256 6.256 0 0 0 0.4703-1.135zm-0.6249 1.363a5.749 5.749 0 0 1-0.6646 0.8719l0.3587 0.3587a6.256 6.256 0 0 0 0.7454-0.977z" fill="#333" style="paint-order:normal"/>
 <path transform="scale(.2646)" d="m121.7 202.7c-0.1648 0-0.308 0.04043-0.4316 0.1641l-2.473 2.451c-0.1236 0.1236-0.1856 0.2883-0.1856 0.4531v5.09c0 0.1648 0.06192 0.308 0.1856 0.4316l2.492 2.453c0.1236 0.1236 0.2688 0.1856 0.4336 0.1856h2.451l2.225 2.43 0.9082-0.8242-2.082-2.244 1.979-1.979c0.1236-0.1236 0.1855-0.2482 0.1855-0.4336v-5.068c0-0.1648-0.06191-0.308-0.1855-0.4316l-2.432-2.514c-0.1236-0.1236-0.2668-0.1641-0.4316-0.1641h-2.639zm0.2695 1.215h2.1l2.082 2.143v4.553l-1.812 1.834-0.6602-1.051v-1.174h-1.236v1.338c0 0.1236 0.02043 0.2076 0.08203 0.3106l0.5156 0.8242h-1.07l-2.123-2.102v-4.574l2.123-2.102zm-60.91 168.5c-0.1271 0-0.2386 0.03156-0.334 0.127l-1.906 1.891c-0.09536 0.09535-0.1445 0.2225-0.1445 0.3496v3.926c0 0.127 0.04917 0.2387 0.1445 0.334l1.922 1.893c0.09536 0.09524 0.2068 0.1426 0.334 0.1426h1.891l1.717 1.875 0.6992-0.6367-1.605-1.73 1.527-1.527c0.09536-0.09525 0.1426-0.1911 0.1426-0.334v-3.908c0-0.1272-0.04722-0.2386-0.1426-0.334l-1.877-1.939c-0.09536-0.09536-0.2068-0.127-0.334-0.127h-2.033zm0.207 0.9375h1.621l1.605 1.652v3.514l-1.4 1.414-0.5078-0.8106v-0.9062h-0.9531v1.033c0 0.09525 0.0148 0.1589 0.0625 0.2383l0.3984 0.6367h-0.8262l-1.637-1.621v-3.529l1.637-1.621z" fill="#f00" stroke-width=".5151" style="font-feature-settings:normal;font-variant-caps:normal;font-variant-ligatures:normal;font-variant-numeric:normal"/>
 <path d="m6.824 124h1.598c0.7769 0 1.396 0.6194 1.396 1.396 0 0.7769-0.6193 1.396-1.396 1.396h-1.598c-0.777 0-1.396-0.6187-1.396-1.396 0-0.7768 0.6194-1.396 1.396-1.396zm35.55 0h1.598c0.7769 0 1.396 0.6194 1.396 1.396 0 0.7769-0.6193 1.396-1.396 1.396h-1.598c-0.7769 0-1.396-0.6187-1.396-1.396 0-0.7768 0.6194-1.396 1.396-1.396z" color="#000000" color-rendering="auto" dominant-baseline="auto" fill="#c9c9c9" image-rendering="auto" shape-rendering="auto" solid-color="#000000" stroke-width=".3382" style="font-feature-settings:normal;font-variant-alternates:normal;font-variant-caps:normal;font-variant-ligatures:normal;font-variant-numeric:normal;font-variant-position:normal;isolation:auto;mix-blend-mode:normal;paint-order:normal;shape-padding:0;text-decoration-color:#000000;text-decoration-line:none;text-decoration-style:solid;text-indent:0;text-orientation:mixed;text-transform:none;white-space:normal"/>
 <path d="m15.81 10.35v-3.537h1.14l0.8511 0.8676v1.818l-0.8511 0.8511zm-0.504-3.537v3.545h-0.504v0.4958h2.248c0.04132 0 0.1157-0.02479 0.1735-0.08263l0.9998-0.9916c0.02479-0.02479 0.07437-0.09916 0.07437-0.1818v-2.016c0-0.04132-0.01653-0.1157-0.07437-0.1735l-0.9916-1.008c-0.02479-0.02479-0.09089-0.07437-0.1735-0.07437h-2.256v0.4875z" fill="#73cde1" stroke-width=".2066" style="font-feature-settings:normal;font-variant-caps:normal;font-variant-ligatures:normal;font-variant-numeric:normal"/>
 <path d="m19.22 6.324v3.785c0 0.08263 0.04132 0.1487 0.06611 0.1735l0.4875 0.4875c0.05784 0.05784 0.1322 0.07437 0.1735 0.07437h2.049c0.08263 0 0.1487-0.04958 0.1818-0.08263l0.4793-0.504c0.05784-0.05784 0.06611-0.1322 0.06611-0.1653v-3.768h-0.4958v3.669l-0.3388 0.3553h-1.834l-0.3553-0.3471v-3.677z" fill="#73cde1" stroke-width=".2066" style="font-feature-settings:normal;font-variant-caps:normal;font-variant-ligatures:normal;font-variant-numeric:normal"/>
 <path d="m25.64 8.2 1.008-1.041v3.694h0.4958v-4.289c0-0.1074-0.05784-0.1983-0.157-0.2396-0.03305-0.01653-0.05784 0-0.09089 0-0.05784 0-0.1239 0.01653-0.1735 0.0661l-1.347 1.347-1.33-1.33c-0.04958-0.04958-0.1157-0.08263-0.1735-0.08263-0.03305 0-0.05784 0.00826-0.09089 0.02479-0.09916 0.04132-0.157 0.1239-0.157 0.2314v4.272h0.4958v-3.677l1.016 1.025v0.628h0.504z" fill="#73cde1" stroke-width=".2066" style="font-feature-settings:normal;font-variant-caps:normal;font-variant-ligatures:normal;font-variant-numeric:normal"/>
 <path d="m30.06 8.2 1.008-1.041v3.694h0.4958v-4.289c0-0.1074-0.05784-0.1983-0.157-0.2396-0.03305-0.01653-0.05784 0-0.09089 0-0.05784 0-0.1239 0.01653-0.1735 0.0661l-1.347 1.347-1.33-1.33c-0.04958-0.04958-0.1157-0.08263-0.1735-0.08263-0.03305 0-0.05784 0.00826-0.09089 0.02479-0.09916 0.04132-0.157 0.1239-0.157 0.2314v4.272h0.4958v-3.677l1.016 1.025v0.628h0.504z" fill="#73cde1" stroke-width=".2066" style="font-feature-settings:normal;font-variant-caps:normal;font-variant-ligatures:normal;font-variant-numeric:normal"/>
 <path d="m34.48 8.191 1.446-1.446c0.04958-0.04958 0.06611-0.1157 0.06611-0.1818v-0.2396h-0.4958v0.157l-1.256 1.256-1.273-1.256v-0.157h-0.4958v0.2562c0 0.0661 0.02479 0.1239 0.07437 0.1735l1.43 1.438v2.661h0.504z" fill="#73cde1" stroke-width=".2066" style="font-feature-settings:normal;font-variant-caps:normal;font-variant-ligatures:normal;font-variant-numeric:normal"/>
</svg>
