<?xml version="1.0" encoding="UTF-8"?>
<!-- Created with Inkscape (http://www.inkscape.org/) -->
<svg width="6.931mm" height="6.932mm" version="1.1" viewBox="0 0 6.931 6.932" xmlns="http://www.w3.org/2000/svg" xmlns:cc="http://creativecommons.org/ns#" xmlns:dc="http://purl.org/dc/elements/1.1/" xmlns:rdf="http://www.w3.org/1999/02/22-rdf-syntax-ns#" xmlns:xlink="http://www.w3.org/1999/xlink">
 <defs>
  <linearGradient id="linearGradient1497" x1="64.63" x2="66.83" y1="275.1" y2="277.6" gradientTransform="matrix(.9755 0 0 .9755 -21.89 -177.2)" gradientUnits="userSpaceOnUse" xlink:href="#linearGradient975"/>
  <linearGradient id="linearGradient975">
   <stop stop-color="#e6e6e6" offset="0"/>
   <stop stop-color="#b9b9b9" offset="1"/>
  </linearGradient>
  <linearGradient id="linearGradient1499" x1="42.11" x2="43.18" y1="124.7" y2="127.8" gradientTransform="matrix(1.789 0 0 1.789 -32.84 -132.2)" gradientUnits="userSpaceOnUse" xlink:href="#linearGradient975"/>
  <linearGradient id="linearGradient1501" x1="251.7" x2="251.6" y1="415" y2="411.5" gradientTransform="matrix(.2646 0 0 .2646 -23.53 -15.55)" gradientUnits="userSpaceOnUse" xlink:href="#linearGradient975"/>
  <linearGradient id="linearGradient1503" x1="-224.8" x2="-298" y1="113.9" y2="178.2" gradientTransform="matrix(.02843 0 0 .02843 49.75 -96.85)" gradientUnits="userSpaceOnUse">
   <stop stop-color="#1a1a1a" offset="0"/>
   <stop stop-color="#4d4d4d" offset="1"/>
  </linearGradient>
  <linearGradient id="linearGradient1505" x1="66.84" x2="65.11" y1="277.7" y2="276.1" gradientTransform="matrix(.9819 0 0 .9819 -22.32 -179)" gradientUnits="userSpaceOnUse" xlink:href="#linearGradient2560"/>
  <linearGradient id="linearGradient2560">
   <stop stop-color="#4d4d4d" offset="0"/>
   <stop stop-color="#808080" offset="1"/>
  </linearGradient>
  <linearGradient id="linearGradient1507" x1="66.84" x2="65.11" y1="277.7" y2="276.1" gradientTransform="matrix(.7961 0 0 -.7961 -9.89 314.8)" gradientUnits="userSpaceOnUse" xlink:href="#linearGradient2560"/>
  <linearGradient id="linearGradient1509" x1="42.52" x2="42.53" y1="127.1" y2="126.1" gradientTransform="matrix(1.157,0,0,1.157,-5.88,-52.15)" gradientUnits="userSpaceOnUse">
   <stop stop-color="#b3b3b3" offset="0"/>
   <stop offset="1"/>
  </linearGradient>
  <linearGradient id="linearGradient1511" x1="42.53" x2="42.52" y1="126.7" y2="127.1" gradientTransform="matrix(1.157 0 0 1.157 -5.88 -52.08)" gradientUnits="userSpaceOnUse">
   <stop stop-color="#8e8e8e" offset="0"/>
   <stop stop-color="#292929" offset="1"/>
  </linearGradient>
 </defs>
 <metadata>
  <rdf:RDF>
   <cc:Work rdf:about="">
    <dc:format>image/svg+xml</dc:format>
    <dc:type rdf:resource="http://purl.org/dc/dcmitype/StillImage"/>
    <dc:title/>
   </cc:Work>
  </rdf:RDF>
 </metadata>
 <g transform="translate(-113.7 -185.4)">
  <g transform="translate(73.81 95.28)">
   <path d="m46.37 95.35c-0.03334 0.0577-0.09628 0.0938-0.1329 0.1496-0.03659 0.0557-0.04463 0.1278-0.08434 0.1814s-0.1063 0.0822-0.149 0.1335c-0.0427 0.0512-0.05891 0.1219-0.1045 0.1706-0.04556 0.0487-0.115 0.0696-0.1633 0.1156-0.04826 0.046-0.07242 0.1144-0.1232 0.1576-0.05081 0.0432-0.1222 0.056-0.1754 0.0962-0.05319 0.0402-0.08499 0.1054-0.1404 0.1425-0.0554 0.0371-0.1278 0.0417-0.1852 0.0756-0.05743 0.0339-0.09646 0.095-0.1557 0.1256-0.05927 0.0306-0.1317 0.0269-0.1926 0.054-0.06092 0.0271-0.1067 0.0834-0.169 0.107-0.06237 0.0236-0.1339 0.0117-0.1975 0.0317-0.06362 0.02-0.1155 0.0707-0.1801 0.0871-0.06466 0.0163-0.1344-4e-3 -0.1999 9e-3 -0.06548 0.0126-0.1228 0.0571-0.1889 0.066-0.0661 9e-3 -0.1331-0.019-0.1996-0.0139-0.06649 5e-3 -0.1285 0.0427-0.1952 0.044-0.06668 1e-3 -0.1301-0.034-0.1967-0.0365-0.06664-3e-3 -0.1325 0.0278-0.1989 0.0215-0.06639-6e-3 -0.1253-0.0486-0.1913-0.0587-0.06592-0.0101-0.1348 0.0125-0.2001-1e-3 -0.06523-0.0139-0.119-0.0626-0.1833-0.0801-0.06433-0.0176-0.1354-3e-3 -0.1986-0.0241-0.06322-0.0212-0.1111-0.0757-0.173-0.1005-0.06191-0.0248-0.1342-0.0183-0.1946-0.0466-0.06039-0.0283-0.1017-0.0879-0.1604-0.1196-0.05868-0.0317-0.1312-0.0335-0.188-0.0685-0.05678-0.035-0.09104-0.0989-0.1457-0.1371-0.05469-0.0382-0.1265-0.0483-0.1789-0.0895-0.05242-0.0412-0.07917-0.1086-0.1291-0.1528-0.04998-0.0442-0.1202-0.0624-0.1676-0.1093s-0.06627-0.117-0.1109-0.1665c-0.04462-0.0496-0.1123-0.0757-0.154-0.1277-0.04172-0.052-0.0525-0.1238-0.09118-0.1781s-0.1029-0.088-0.1385-0.1444c-0.03552-0.0564-0.03805-0.1289-0.07029-0.1873s-0.09224-0.0991-0.1211-0.1592c-0.02885-0.0601-0.02311-0.1324-0.04848-0.1941s-0.08034-0.109-0.1022-0.172c-0.02181-0.063-0.0079-0.1342-0.02604-0.1984-0.01818-0.0642-0.06739-0.1174-0.08188-0.1826s0.0075-0.1342-0.0033-0.2c-0.01075-0.0658-0.05356-0.1244-0.06054-0.1907-7e-3 -0.0663 0.02274-0.1325 0.01957-0.1991-0.0032-0.0666-0.03904-0.1297-0.03841-0.1964 6.35e-4 -0.0667 0.0377-0.129 0.04214-0.1956 0.0044-0.0665-0.02401-0.1333-0.01577-0.1994 0.0082-0.0662 0.05216-0.1239 0.06415-0.1895 0.012-0.0656-0.0087-0.1351 0.0071-0.1999 0.01572-0.0648 0.06594-0.1172 0.08534-0.181s0.0068-0.1352 0.02981-0.1978 0.07887-0.1089 0.1054-0.17c0.02654-0.0612 0.02217-0.1336 0.05217-0.1931 0.02999-0.0596 0.09076-0.0992 0.1241-0.1569 0.03334-0.0578 0.03726-0.1302 0.07384-0.1859 0.03659-0.0558 0.1015-0.0882 0.1412-0.1418 0.03971-0.0536 0.05186-0.1251 0.09456-0.1763s0.1109-0.076 0.1564-0.1247c0.04556-0.0487 0.06577-0.1184 0.114-0.1644 0.04827-0.046 0.1188-0.0629 0.1696-0.1061 0.05081-0.0432 0.07884-0.1101 0.132-0.1503 0.0532-0.0402 0.1252-0.0489 0.1806-0.0861 0.05541-0.0371 0.09087-0.1004 0.1483-0.1343s0.13-0.0344 0.1892-0.0649c0.05927-0.0306 0.1017-0.0894 0.1626-0.1165 0.06092-0.0271 0.133-0.0193 0.1954-0.0429 0.06237-0.0236 0.1112-0.0772 0.1749-0.0972 0.06362-0.02 0.1344-4e-3 0.199-0.0204 0.06466-0.0163 0.1193-0.064 0.1848-0.0766 0.06548-0.0126 0.134 0.0113 0.2001 2e-3 0.0661-9e-3 0.1258-0.05 0.1923-0.0551 0.0665-5e-3 0.1318 0.0265 0.1985 0.0253 0.06668-1e-3 0.1307-0.0353 0.1974-0.0328 0.06664 3e-3 0.1279 0.0414 0.1943 0.0477 0.06639 6e-3 0.1339-0.0202 0.1998-0.0101 0.06592 0.0101 0.1224 0.0557 0.1876 0.0695 0.06523 0.0139 0.1353-5e-3 0.1997 0.0128 0.06433 0.0176 0.1152 0.0693 0.1784 0.0905 0.06322 0.0212 0.135 0.0107 0.1969 0.0355 0.06191 0.0248 0.1066 0.0819 0.167 0.1102 0.06039 0.0283 0.1329 0.026 0.1916 0.0577 0.05868 0.0317 0.09654 0.0935 0.1533 0.1285 0.05678 0.035 0.1291 0.041 0.1838 0.0791 0.05469 0.0382 0.08524 0.104 0.1377 0.1452 0.05242 0.0412 0.1236 0.0554 0.1735 0.0996 0.04998 0.0442 0.07284 0.113 0.1202 0.1599 0.04738 0.0469 0.1164 0.0691 0.1611 0.1187 0.04462 0.0496 0.05948 0.1206 0.1012 0.1726s0.1078 0.082 0.1465 0.1363c0.03868 0.0543 0.04535 0.1266 0.08087 0.183s0.09775 0.0937 0.13 0.1521c0.03224 0.0584 0.03063 0.1309 0.05948 0.191s0.08643 0.1042 0.1118 0.1659 0.01551 0.1335 0.03732 0.1966c0.02181 0.063 0.07399 0.1134 0.09217 0.1776s1.86e-4 0.1344 0.01467 0.1995c0.01449 0.0651 0.06058 0.1211 0.07132 0.1869 0.01075 0.0658-0.01514 0.1336-0.0082 0.1999 7e-3 0.0663 0.04638 0.1272 0.04955 0.1938 0.0032 0.0666-0.03027 0.131-0.0309 0.1977-6.35e-4 0.0667 0.03157 0.1317 0.02713 0.1982-0.0044 0.0665-0.045 0.1267-0.05323 0.1928-0.0082 0.0662 0.01636 0.1344 0.0044 0.2-0.012 0.0656-0.05915 0.1207-0.07487 0.1855s9.29e-4 0.1354-0.01847 0.1992c-0.0194 0.0638-0.07252 0.1132-0.09553 0.1758s-0.01451 0.1346-0.04106 0.1958c-0.02654 0.0612-0.08495 0.1042-0.1149 0.1638-0.02999 0.0596-0.02976 0.1321-0.06311 0.1898z" fill="url(#linearGradient1497)" style="paint-order:normal"/>
   <path d="m43.37 90.35c-1.803 8e-3 -3.243 1.451-3.255 3.261 9e-3 1.813 1.449 3.26 3.255 3.268 1.796-5e-3 3.249-1.462 3.247-3.268-0.0014-1.803-1.454-3.256-3.247-3.261z" clip-rule="evenodd" fill="url(#linearGradient1499)" fill-rule="evenodd" stroke-linejoin="round" stroke-miterlimit="1.414" stroke-width=".4734"/>
   <path d="m40.17 93.05c-0.03487 0.1897-0.05595 0.3843-0.05736 0.5845 0.0011 0.2025 0.02215 0.3993 0.05736 0.5912h6.39c0.03468-0.1919 0.05499-0.389 0.05478-0.5912-1.56e-4 -0.1999-0.02096-0.3946-0.0553-0.5845z" clip-rule="evenodd" fill="#e5e5e5" fill-rule="evenodd" stroke-linejoin="round" stroke-miterlimit="1.414" stroke-width=".4734"/>
   <path d="m40.17 93.05c-0.03487 0.1897-0.05595 0.3843-0.05736 0.5845 0.0011 0.2025 0.02215 0.3993 0.05736 0.5912h6.39c0.03468-0.1919 0.05499-0.389 0.05478-0.5912-1.56e-4 -0.1999-0.02096-0.3946-0.0553-0.5845z" clip-rule="evenodd" fill="url(#linearGradient1501)" fill-rule="evenodd" stroke-linejoin="round" stroke-miterlimit="1.414" stroke-width=".4734"/>
   <path d="m40.14 93.35c-0.01312 0.1135-0.02244 0.2281-0.02326 0.3452 5.29e-4 0.1194 0.0099 0.2363 0.02326 0.3519h6.457c0.01291-0.1158 0.02183-0.2326 0.0217-0.3519-9.3e-5 -0.117-0.0089-0.2317-0.0217-0.3452z" fill="#e6e6e6" style="paint-order:stroke fill markers"/>
   <circle transform="scale(1,-1)" cx="43.37" cy="-93.65" r="2.796" fill="url(#linearGradient1503)" style="paint-order:stroke fill markers"/>
   <path d="m41.01 93.65c0-1.302 1.055-2.359 2.36-2.359 1.303 0 2.36 1.057 2.36 2.359 0 1.304-1.057 2.361-2.36 2.361-1.304 0-2.36-1.057-2.36-2.361" fill="url(#linearGradient1505)"/>
   <path d="m41.45 93.65c0 1.056 0.8558 1.913 1.913 1.913 1.056 0 1.913-0.8568 1.913-1.913 0-1.057-0.8571-1.914-1.913-1.914-1.058 0-1.913 0.8568-1.913 1.914" fill="url(#linearGradient1507)"/>
   <path d="m41.62 93.65c0-0.9657 0.7827-1.749 1.75-1.749 0.9661 0 1.75 0.7837 1.75 1.749 0 0.9669-0.7839 1.751-1.75 1.751-0.9673 0-1.75-0.7836-1.75-1.751"/>
   <path d="m43.38 93.05c-0.3088 1.3e-4 -0.6014 0.0512-0.8579 0.1546-0.04763 0.0302-0.09615 0.0585-0.1407 0.0938v1.09c0 0.5551 0.4468 1.002 1.002 1.002 0.5548 0 1.002-0.4468 1.002-1.002v-1.084c-0.04685-0.0375-0.09827-0.0679-0.1486-0.0997-0.2562-0.103-0.5485-0.1543-0.8566-0.1546z" clip-rule="evenodd" fill="url(#linearGradient1509)" stroke-linejoin="round" stroke-miterlimit="1.414" stroke-width=".3062"/>
   <path d="m42.39 94.52v0.1237c0 0.4152 0.4473 0.7493 1.002 0.7493 0.5548 0 1.002-0.334 1.002-0.7493v-0.1237z" clip-rule="evenodd" fill="url(#linearGradient1511)" stroke-linejoin="round" stroke-miterlimit="1.414" stroke-width=".3062"/>
  </g>
 </g>
</svg>
