<?xml version="1.0" encoding="UTF-8"?>
<!-- Created with Inkscape (http://www.inkscape.org/) -->
<svg width="18.64mm" height="18.64mm" version="1.1" viewBox="0 0 18.64 18.64" xmlns="http://www.w3.org/2000/svg" xmlns:cc="http://creativecommons.org/ns#" xmlns:dc="http://purl.org/dc/elements/1.1/" xmlns:rdf="http://www.w3.org/1999/02/22-rdf-syntax-ns#" xmlns:xlink="http://www.w3.org/1999/xlink">
 <defs>
  <linearGradient id="linearGradient859" x1="-224.8" x2="-289.9" y1="113.9" y2="40.86" gradientTransform="matrix(.09234 0 0 .09234 100.1 162.5)" gradientUnits="userSpaceOnUse" xlink:href="#linearGradient2560"/>
  <linearGradient id="linearGradient2560">
   <stop stop-color="#4d4d4d" offset="0"/>
   <stop stop-color="#808080" offset="1"/>
  </linearGradient>
  <linearGradient id="linearGradient840" x1="-224.8" x2="-279.3" y1="113.9" y2="33.55" gradientTransform="matrix(.09474 0 0 .09474 100.7 -183.8)" gradientUnits="userSpaceOnUse" xlink:href="#linearGradient857"/>
  <linearGradient id="linearGradient857">
   <stop stop-color="#1a1a1a" offset="0"/>
   <stop stop-color="#4d4d4d" offset="1"/>
  </linearGradient>
 </defs>
 <metadata>
  <rdf:RDF>
   <cc:Work rdf:about="">
    <dc:format>image/svg+xml</dc:format>
    <dc:type rdf:resource="http://purl.org/dc/dcmitype/StillImage"/>
    <dc:title/>
   </cc:Work>
  </rdf:RDF>
 </metadata>
 <g transform="translate(-70.06 -163.7)">
  <circle transform="scale(1,-1)" cx="79.38" cy="-173" r="9.318" fill="url(#linearGradient840)" style="paint-order:stroke fill markers"/>
  <circle cx="79.38" cy="173" r="9.082" fill="url(#linearGradient859)" style="paint-order:stroke fill markers"/>
  <path d="m86.96 174.8c-0.4584 1.984-0.6677 1.195-1.942 2.784-1.274 1.589-0.4579 1.621-2.295 2.5-1.837 0.8788-1.351 0.223-3.387 0.2176-2.036-5e-3 -1.553 0.6528-3.385-0.2353-1.832-0.8881-1.017-0.9172-2.282-2.513-1.265-1.595-1.479-0.8078-1.927-2.794-0.4479-1.987 0.08314-1.366 0.5415-3.35 0.4584-1.984-0.2907-1.66 0.9828-3.248 1.274-1.589 1.12-0.787 2.957-1.665 1.837-0.8788 1.117-1.262 3.153-1.257 2.036 5e-3 1.314 0.385 3.146 1.273 1.832 0.8881 1.683 0.0859 2.948 1.681 1.265 1.595 0.5179 1.267 0.9658 3.254 0.4479 1.987 0.982 1.369 0.5238 3.354z" fill="#808080" stroke-width=".08004" style="paint-order:stroke fill markers"/>
  <path d="m86.93 174.8c-0.456 1.974-0.6643 1.189-1.932 2.77s-0.4555 1.613-2.284 2.488c-1.828 0.8746-1.344 0.222-3.37 0.2167-2.026-5e-3 -1.545 0.6496-3.369-0.2338-1.823-0.8836-1.012-0.9126-2.271-2.5-1.259-1.587-1.472-0.8037-1.917-2.78-0.4458-1.977 0.08263-1.359 0.5386-3.334 0.456-1.974-0.2894-1.651 0.9777-3.232 1.267-1.581 1.115-0.7832 2.942-1.657 1.828-0.8746 1.111-1.256 3.137-1.251 2.026 5e-3 1.307 0.383 3.131 1.267 1.823 0.8836 1.674 0.0854 2.934 1.673 1.259 1.587 0.5154 1.261 0.9613 3.238 0.4458 1.977 0.9773 1.362 0.5215 3.337z" fill="#1a1a1a" stroke-width=".07965" style="paint-order:stroke fill markers"/>
  <rect x="78.93" y="165.7" width=".9042" height="7.347" rx=".1222" ry=".1222" fill="#f9f9f9" style="paint-order:stroke fill markers"/>
  <circle cx="79.38" cy="164.6" r=".5738" fill="#f9f9f9" style="paint-order:stroke fill markers"/>
  <circle transform="scale(1,-1)" cx="79.38" cy="-173" r="9.318" fill="url(#linearGradient840)" style="paint-order:stroke fill markers"/>
  <circle cx="79.38" cy="173" r="9.082" fill="url(#linearGradient859)" style="paint-order:stroke fill markers"/>
 </g>
</svg>
