<?xml version="1.0" encoding="UTF-8"?>
<!-- Created with Inkscape (http://www.inkscape.org/) -->
<svg width="10.19mm" height="10.17mm" version="1.1" viewBox="0 0 10.19 10.17" xmlns="http://www.w3.org/2000/svg" xmlns:cc="http://creativecommons.org/ns#" xmlns:dc="http://purl.org/dc/elements/1.1/" xmlns:rdf="http://www.w3.org/1999/02/22-rdf-syntax-ns#">
 <metadata>
  <rdf:RDF>
   <cc:Work rdf:about="">
    <dc:format>image/svg+xml</dc:format>
    <dc:type rdf:resource="http://purl.org/dc/dcmitype/StillImage"/>
    <dc:title/>
   </cc:Work>
  </rdf:RDF>
 </metadata>
 <g transform="translate(-106 -149.8)">
  <circle cx="111.1" cy="154.9" r="5.069" opacity="0" stroke-width="1.465" style="paint-order:stroke fill markers"/>
  <path d="m114.7 158.4c-0.809 0.8318-0.6981 0.3343-1.764 0.7934-1.065 0.459-0.6279 0.7204-1.788 0.7364-1.16 0.0163-0.7298-0.2571-1.808-0.686-1.078-0.4289-0.9535 0.0653-1.785-0.7435-0.8318-0.809-0.3343-0.6981-0.7934-1.764-0.459-1.065-0.7204-0.6279-0.7364-1.788-0.0163-1.16 0.257-0.7298 0.686-1.808s-0.0653-0.9535 0.7435-1.785c0.809-0.8318 0.6981-0.3343 1.764-0.7934 1.065-0.4592 0.6279-0.7204 1.788-0.7364 1.16-0.0163 0.7298 0.257 1.808 0.686 1.078 0.4289 0.9535-0.0653 1.785 0.7435 0.8318 0.809 0.3343 0.6981 0.7934 1.764 0.459 1.065 0.7204 0.6279 0.7364 1.788 0.0163 1.16-0.257 0.7298-0.686 1.808-0.4289 1.078 0.0653 0.9535-0.7435 1.785z" fill="#808080" stroke-width=".05182" style="paint-order:stroke fill markers"/>
  <path d="m114.7 158.3c-0.7936 0.816-0.6849 0.328-1.73 0.7785-1.045 0.4504-0.616 0.7068-1.754 0.7225-1.138 0.016-0.7159-0.2522-1.774-0.6729-1.058-0.4207-0.9354 0.0641-1.751-0.7293-0.816-0.7936-0.328-0.6849-0.7785-1.73-0.4504-1.045-0.7068-0.616-0.7225-1.754-0.016-1.138 0.2521-0.7159 0.6729-1.774 0.4207-1.058-0.0641-0.9354 0.7293-1.751 0.7936-0.816 0.6849-0.328 1.73-0.7784 1.045-0.4505 0.616-0.7068 1.754-0.7225 1.138-0.016 0.7159 0.2522 1.774 0.6729 1.058 0.4207 0.9354-0.0641 1.751 0.7293 0.816 0.7936 0.328 0.6849 0.7784 1.73 0.4504 1.045 0.7068 0.616 0.7225 1.754 0.016 1.138-0.2521 0.7159-0.6729 1.774s0.0641 0.9354-0.7293 1.751z" stroke-width=".05083" style="paint-order:stroke fill markers"/>
  <rect x="110.8" y="150.1" width=".5842" height="4.747" rx=".07892" ry=".07892" fill="#f9f9f9" stroke-width="1.465" style="paint-order:stroke fill markers"/>
 </g>
</svg>
