<?xml version="1.0" encoding="UTF-8"?>
<!-- Created with Inkscape (http://www.inkscape.org/) -->
<svg width="6.931mm" height="6.932mm" version="1.1" viewBox="0 0 6.931 6.932" xmlns="http://www.w3.org/2000/svg" xmlns:cc="http://creativecommons.org/ns#" xmlns:dc="http://purl.org/dc/elements/1.1/" xmlns:rdf="http://www.w3.org/1999/02/22-rdf-syntax-ns#" xmlns:xlink="http://www.w3.org/1999/xlink">
 <defs>
  <linearGradient id="linearGradient2498" x1="83.39" x2="84.81" y1="97.06" y2="98.9" gradientTransform="matrix(.8788 0 0 .8788 -70.86 -84.2)" gradientUnits="userSpaceOnUse">
   <stop stop-color="#fff" offset="0"/>
   <stop stop-color="#c0c0c0" offset="1"/>
  </linearGradient>
  <linearGradient id="linearGradient2490" x1="83.44" x2="85.78" y1="97.52" y2="97.52" gradientTransform="matrix(3.78 0 0 3.78 -306.9 -365.5)" gradientUnits="userSpaceOnUse" xlink:href="#linearGradient975"/>
  <linearGradient id="linearGradient975">
   <stop stop-color="#e6e6e6" offset="0"/>
   <stop stop-color="#b9b9b9" offset="1"/>
  </linearGradient>
  <linearGradient id="linearGradient2469" x1="83.59" x2="84.71" y1="98.78" y2="100.2" gradientTransform="matrix(.7075 0 0 .7075 -56.37 -67.33)" gradientUnits="userSpaceOnUse" xlink:href="#linearGradient975"/>
  <linearGradient id="linearGradient2422" x1="66.84" x2="65.11" y1="277.7" y2="276.1" gradientTransform="matrix(.6626 0 0 -.6626 -40.91 187.6)" gradientUnits="userSpaceOnUse" xlink:href="#linearGradient2560"/>
  <linearGradient id="linearGradient2560">
   <stop stop-color="#4d4d4d" offset="0"/>
   <stop stop-color="#808080" offset="1"/>
  </linearGradient>
  <linearGradient id="linearGradient2420" x1="66.84" x2="65.11" y1="277.7" y2="276.1" gradientTransform="matrix(.9654 0 0 .9654 -61.11 -264.6)" gradientUnits="userSpaceOnUse" xlink:href="#linearGradient2560"/>
  <linearGradient id="linearGradient2418" x1="-224.8" x2="-298" y1="113.9" y2="178.2" gradientTransform="matrix(.02795 0 0 .02795 9.666 -6.666)" gradientUnits="userSpaceOnUse">
   <stop stop-color="#1a1a1a" offset="0"/>
   <stop stop-color="#4d4d4d" offset="1"/>
  </linearGradient>
  <linearGradient id="linearGradient2416" x1="251.7" x2="251.6" y1="415" y2="411.5" gradientTransform="matrix(.2646 0 0 .2646 -63.44 -105.7)" gradientUnits="userSpaceOnUse" xlink:href="#linearGradient975"/>
  <linearGradient id="linearGradient2414" x1="42.11" x2="43.18" y1="124.7" y2="127.8" gradientTransform="matrix(1.789 0 0 1.789 -72.78 -222.4)" gradientUnits="userSpaceOnUse" xlink:href="#linearGradient975"/>
  <linearGradient id="linearGradient2412" x1="64.63" x2="66.83" y1="275.1" y2="277.6" gradientTransform="matrix(.9755 0 0 .9755 -61.83 -267.4)" gradientUnits="userSpaceOnUse" xlink:href="#linearGradient975"/>
 </defs>
 <metadata>
  <rdf:RDF>
   <cc:Work rdf:about="">
    <dc:format>image/svg+xml</dc:format>
    <dc:type rdf:resource="http://purl.org/dc/dcmitype/StillImage"/>
    <dc:title/>
   </cc:Work>
  </rdf:RDF>
 </metadata>
 <path d="m6.47 5.199c-0.0333 0.0578-0.0963 0.0938-0.1329 0.1496s-0.0446 0.1278-0.0843 0.1814-0.1063 0.0822-0.149 0.1335c-0.0427 0.0512-0.0589 0.1219-0.1045 0.1706s-0.115 0.0696-0.1633 0.1156-0.0724 0.1144-0.1232 0.1576-0.1222 0.056-0.1754 0.0962-0.085 0.1054-0.1404 0.1425-0.1278 0.0417-0.1852 0.0756-0.0965 0.095-0.1557 0.1256c-0.0593 0.0306-0.1317 0.0269-0.1926 0.054s-0.1067 0.0834-0.169 0.107c-0.0624 0.0236-0.1339 0.0117-0.1975 0.0317s-0.1155 0.0707-0.1801 0.0871c-0.0647 0.0163-0.1344-4e-3 -0.1999 9e-3 -0.0655 0.0126-0.1228 0.0571-0.1889 0.066-0.0661 9e-3 -0.1331-0.0189-0.1996-0.0139s-0.1285 0.0427-0.1952 0.044c-0.0667 1e-3 -0.1301-0.034-0.1967-0.0365-0.0666-3e-3 -0.1325 0.0278-0.1989 0.0215-0.0664-6e-3 -0.1253-0.0486-0.1913-0.0587-0.0659-0.0101-0.1348 0.0125-0.2001-1e-3 -0.0652-0.0139-0.119-0.0626-0.1833-0.0801-0.0643-0.0176-0.1354-3e-3 -0.1986-0.0241-0.0632-0.0212-0.1111-0.0757-0.173-0.1005s-0.1342-0.0183-0.1946-0.0466-0.1017-0.0879-0.1604-0.1196-0.1312-0.0335-0.188-0.0685-0.091-0.0989-0.1457-0.1371-0.1265-0.0483-0.1789-0.0895-0.07917-0.1086-0.1291-0.1528c-0.04998-0.0442-0.1202-0.0624-0.1676-0.1093-0.04738-0.0469-0.06627-0.117-0.1109-0.1665-0.04462-0.0496-0.1123-0.0757-0.154-0.1277-0.04172-0.052-0.0525-0.1238-0.09118-0.1781s-0.1029-0.088-0.1385-0.1444c-0.03552-0.0564-0.03805-0.1289-0.07029-0.1873s-0.09224-0.0991-0.1211-0.1593c-0.02885-0.0601-0.02311-0.1324-0.04848-0.1941s-0.08034-0.109-0.1022-0.172c-0.02181-0.063-0.0079-0.1342-0.02604-0.1984-0.01818-0.0642-0.06739-0.1174-0.08188-0.1825s0.0075-0.1342-0.0033-0.2c-0.01075-0.0658-0.05357-0.1244-0.06054-0.1907-7e-3 -0.0663 0.02274-0.1325 0.01957-0.1991-0.0032-0.0666-0.03904-0.1297-0.03841-0.1963 6.35e-4 -0.06669 0.03769-0.129 0.04214-0.1956 0.0044-0.0665-0.024-0.1333-0.01577-0.1994 0.0082-0.0662 0.05216-0.1239 0.06416-0.1895s-0.0087-0.1351 0.0071-0.1999c0.01572-0.0648 0.06594-0.1172 0.08534-0.181s0.0068-0.1352 0.02981-0.1978 0.07887-0.1089 0.1054-0.17c0.02654-0.0612 0.02217-0.1336 0.05217-0.1932 0.02999-0.0596 0.09076-0.0992 0.1241-0.1569s0.03726-0.1302 0.07384-0.1859c0.03659-0.0557 0.1015-0.0882 0.1412-0.1418 0.03971-0.0536 0.05185-0.1251 0.09456-0.1763 0.0427-0.0512 0.1109-0.076 0.1564-0.1247 0.04556-0.0487 0.06577-0.1184 0.114-0.1644 0.04826-0.046 0.1188-0.0629 0.1696-0.1061 0.05081-0.0432 0.07884-0.1101 0.132-0.1503 0.0532-0.0402 0.1252-0.0489 0.1806-0.0861 0.0554-0.0371 0.0909-0.1004 0.1483-0.1343s0.13-0.0343 0.1892-0.0649c0.0593-0.0306 0.1017-0.0894 0.1626-0.1165s0.133-0.0193 0.1954-0.0429 0.1112-0.0772 0.1749-0.0972c0.0636-0.02 0.1344-4e-3 0.199-0.0204 0.0647-0.0163 0.1193-0.064 0.1848-0.0766s0.134 0.0113 0.2 2e-3c0.0661-9e-3 0.1258-0.05 0.1923-0.0551 0.0665-5e-3 0.1318 0.0265 0.1985 0.0252 0.0667-1e-3 0.1307-0.0353 0.1974-0.0328 0.0666 3e-3 0.1279 0.0414 0.1943 0.0477 0.0664 6e-3 0.1339-0.0202 0.1998-0.0101s0.1224 0.0557 0.1876 0.0695c0.0652 0.0139 0.1353-5e-3 0.1997 0.0128 0.0643 0.0176 0.1152 0.0693 0.1784 0.0905s0.135 0.0107 0.1969 0.0354c0.0619 0.0248 0.1066 0.0819 0.167 0.1102s0.1329 0.026 0.1916 0.0577 0.0965 0.0936 0.1533 0.1285c0.0568 0.035 0.1291 0.041 0.1838 0.0791 0.0547 0.0382 0.0852 0.104 0.1377 0.1452 0.0524 0.0412 0.1236 0.0554 0.1735 0.0995 0.05 0.0442 0.0728 0.113 0.1202 0.1599 0.0474 0.0469 0.1164 0.0691 0.1611 0.1187 0.0446 0.0496 0.0595 0.1206 0.1012 0.1726s0.1078 0.082 0.1465 0.1363 0.0453 0.1266 0.0809 0.183c0.0355 0.0564 0.0978 0.0937 0.13 0.1521s0.0306 0.1309 0.0595 0.191 0.0864 0.1042 0.1118 0.1659 0.0155 0.1335 0.0373 0.1966c0.0218 0.063 0.074 0.1134 0.0922 0.1776s1.9e-4 0.1344 0.0147 0.1995c0.0145 0.0651 0.0606 0.1211 0.0713 0.1869 0.0108 0.0658-0.0151 0.1336-8e-3 0.1999 7e-3 0.0663 0.0464 0.1272 0.0496 0.1938 3e-3 0.0666-0.0303 0.131-0.0309 0.1977-6.3e-4 0.0667 0.0316 0.1317 0.0271 0.1982-4e-3 0.0665-0.045 0.1267-0.0532 0.1928-8e-3 0.0662 0.0164 0.1344 4e-3 0.2-0.012 0.0656-0.0591 0.1207-0.0749 0.1855-0.0157 0.0648 9.3e-4 0.1354-0.0185 0.1992-0.0194 0.0638-0.0725 0.1132-0.0955 0.1758s-0.0145 0.1346-0.0411 0.1958c-0.0265 0.0612-0.0849 0.1042-0.1149 0.1638s-0.0298 0.1321-0.0631 0.1898z" fill="url(#linearGradient2412)" style="paint-order:normal"/>
 <path d="m3.469 0.2015c-1.803 8e-3 -3.243 1.451-3.255 3.261 9e-3 1.813 1.449 3.26 3.255 3.268 1.796-5e-3 3.249-1.462 3.247-3.268-1e-3 -1.803-1.454-3.256-3.247-3.261z" clip-rule="evenodd" fill="url(#linearGradient2414)" fill-rule="evenodd" stroke-linejoin="round" stroke-miterlimit="1.414" stroke-width=".4734"/>
 <path d="m0.2718 2.878c-0.03487 0.1897-0.05595 0.3843-0.05736 0.5845 0.0011 0.2025 0.02215 0.3993 0.05736 0.5912h6.39c0.0347-0.1919 0.055-0.389 0.0548-0.5912-1.5e-4 -0.1999-0.021-0.3946-0.0553-0.5845z" clip-rule="evenodd" fill="url(#linearGradient2416)" fill-rule="evenodd" stroke-linejoin="round" stroke-miterlimit="1.414" stroke-width=".4734"/>
 <path d="m0.2378 3.117c-0.01312 0.1135-0.02244 0.2281-0.02326 0.3452 5.29e-4 0.1194 0.0099 0.2363 0.02326 0.3519h6.457c0.0129-0.1158 0.0218-0.2326 0.0217-0.3519-9e-5 -0.117-9e-3 -0.2317-0.0217-0.3452z" fill="#e6e6e6" style="paint-order:stroke fill markers"/>
 <circle transform="scale(1,-1)" cx="3.466" cy="-3.466" r="2.749" fill="url(#linearGradient2418)" style="paint-order:stroke fill markers"/>
 <path d="m1.146 3.465c0-1.28 1.038-2.319 2.32-2.319 1.281 0 2.32 1.039 2.32 2.319 0 1.282-1.039 2.321-2.32 2.321-1.282 0-2.32-1.039-2.32-2.321" fill="url(#linearGradient2420)"/>
 <path d="m1.872 3.466c0 0.8788 0.7123 1.592 1.593 1.592 0.8791 0 1.593-0.7132 1.593-1.592 0-0.8799-0.7134-1.593-1.593-1.593-0.8802 0-1.593 0.7132-1.593 1.593" fill="url(#linearGradient2422)"/>
 <path d="m2.228 3.466c0-0.6832 0.5538-1.238 1.238-1.238 0.6834 0 1.238 0.5544 1.238 1.238 0 0.6841-0.5546 1.238-1.238 1.238-0.6843 0-1.238-0.5544-1.238-1.238" fill="url(#linearGradient2469)"/>
 <g transform="translate(.002054)" stroke-width="3.78">
  <path transform="scale(.2646)" d="m13.1 3.854c-1.249 0-2.358 0.5512-3.129 1.412-0.8176 0.8072-1.277 1.936-1.09 3.184l0.08203 0.3926c0.00937 0.05008 0.02012 0.099 0.03125 0.1484l0.6875 3.256c0.2804 1.873 1.524 3.418 3.418 3.418 1.894 1e-6 3.138-1.545 3.418-3.418l0.6621-3.174c0.02548-0.1031 0.04673-0.2065 0.06445-0.3125l0.06445-0.3105c0.1076-0.718-0.03204-1.388-0.3164-1.99-0.03035-0.07332-0.07116-0.1398-0.1055-0.2109-0.05403-0.09771-0.09753-0.2001-0.1602-0.293-0.731-1.251-2.074-2.102-3.627-2.102z" fill="url(#linearGradient2490)" style="paint-order:stroke fill markers"/>
  <path transform="scale(.2646)" d="m11 11.7v2.852c0.5049 0.4743 1.149 0.7746 1.914 0.7969v-3.09c-0.6973-0.03087-1.345-0.2294-1.914-0.5586z" fill="#c0c0c0" style="paint-order:stroke fill markers"/>
 </g>
 <g>
  <path d="m2.438 2.134c0-0.5668 0.4594-1.026 1.027-1.026 0.567 0 1.027 0.4599 1.027 1.026 0 0.5675-0.4601 1.027-1.027 1.027-0.5677 0-1.027-0.4599-1.027-1.027" fill="url(#linearGradient2498)" stroke-width=".9213"/>
  <path d="m2.716 1.684c0-0.2034 0.1648-0.3684 0.3685-0.3684 0.2034 0 0.3685 0.165 0.3685 0.3684 0 0.2036-0.1651 0.3686-0.3685 0.3686-0.2037 0-0.3685-0.165-0.3685-0.3686" fill="#f2f2f2"/>
 </g>
</svg>
